<svg width="133" height="133" viewBox="0 0 133 133" fill="none" xmlns="http://www.w3.org/2000/svg">
<g filter="url(#filter0_d_4952_109)">
<path d="M20 25C20 22.2386 22.2386 20 25 20H108C110.761 20 113 22.2386 113 25V108C113 110.761 110.761 113 108 113H25C22.2386 113 20 110.761 20 108V25Z" fill="url(#paint0_linear_4952_109)"/>
</g>
<path d="M92.9352 50H40.0648C36.7151 50 34 52.679 34 55.9836V75.6242C34 78.9291 36.7155 81.6078 40.0648 81.6078H65.2262L76.3776 88L74.1506 81.6078H92.9352C96.2849 81.6078 99 78.9289 99 75.6242V55.9836C99.0002 52.6788 96.2847 50 92.9352 50Z" fill="#9C5A90"/>
<path d="M43.1871 78.8216C43.1779 78.8216 43.1692 78.8216 43.1602 78.8214C42.4277 78.8126 41.7459 78.4466 41.3339 77.8408C40.6832 76.884 39.7294 74.678 38.1161 66.0406C37.2514 61.4111 36.6014 57.0512 36.595 57.0078C36.4129 55.7835 37.258 54.6437 38.4824 54.4617C39.7059 54.2794 40.8465 55.1245 41.0285 56.3491C41.0347 56.3916 41.6702 60.6516 42.5157 65.1835C43.0042 67.8012 43.4219 69.754 43.7689 71.207C45.8822 67.3126 48.4617 62.0754 49.5972 59.7102C50.013 58.8444 50.9339 58.3397 51.8882 58.4557C52.8421 58.5717 53.6153 59.2826 53.8115 60.223C54.1827 61.9982 55.1442 65.6948 56.5102 69.05C57.0141 64.2797 57.9891 58.2258 59.8478 54.4153C60.3904 53.3029 61.7323 52.8409 62.8447 53.3837C63.9571 53.9264 64.419 55.2681 63.8763 56.3805C60.9207 62.4395 60.4782 76.2417 60.4739 76.3806C60.4474 77.2746 59.8919 78.0671 59.0607 78.3968C58.2293 78.7267 57.2816 78.531 56.6491 77.8985C54.6412 75.8906 52.8109 72.4303 51.2085 67.6139C51.1393 67.4055 51.072 67.1993 51.0064 66.9957C49.0418 70.9055 46.4593 75.8594 45.0095 77.8855C44.5882 78.4731 43.9093 78.8216 43.1871 78.8216Z" fill="white"/>
<path d="M77.9789 59.9115C77.0456 58.0159 75.4426 56.7053 73.3483 56.1226C70.9594 55.4595 68.3716 56.3414 66.4248 58.4847C64.1139 61.0232 62.4282 65.7811 64.6252 71.5147C66.1301 75.4442 68.4968 76.1654 70.0261 76.1654C70.1913 76.1654 70.3453 76.1564 70.4883 76.1431C74.5584 75.7568 77.9768 70.3715 78.6353 66.6788C79.1086 64.0331 78.8877 61.7557 77.9789 59.9115ZM74.2235 65.8905C74.0159 67.0448 73.2947 68.572 72.3817 69.7799C71.4438 71.0235 70.524 71.6376 70.0663 71.6799C69.7872 71.7066 69.2693 71.1083 68.8116 69.9115C67.8917 67.5136 67.5836 63.8698 69.7404 61.4986C70.3834 60.791 71.1314 60.3912 71.7744 60.3912C71.9039 60.3912 72.0289 60.4068 72.1473 60.4403C74.5473 61.108 74.6007 63.7717 74.2235 65.8905Z" fill="white"/>
<path d="M94.6281 59.9115C94.1593 58.9649 93.5251 58.161 92.7482 57.5247C91.9668 56.8884 91.0424 56.4151 89.9952 56.1226C87.6085 55.4595 85.0208 56.3414 83.0717 58.4847C80.7631 61.0232 79.0774 65.7811 81.2721 71.5147C82.777 75.4442 85.1437 76.1654 86.673 76.1654C86.8382 76.1654 86.9946 76.1564 87.1373 76.1431C91.2053 75.7568 94.6234 70.3715 95.2822 66.6788C95.7557 64.0331 95.5346 61.7557 94.6281 59.9115ZM90.8704 65.8905C90.6651 67.0448 89.9416 68.572 89.0307 69.7799C88.0907 71.0235 87.1709 71.6376 86.7132 71.6799C86.4362 71.7066 85.9161 71.1083 85.4584 69.9115C84.5407 67.5136 84.2328 63.8698 86.3873 61.4986C87.0326 60.791 87.7805 60.3912 88.4213 60.3912C88.5508 60.3912 88.6758 60.4068 88.7963 60.4403C91.1965 61.108 91.2478 63.7717 90.8704 65.8905Z" fill="white"/>
<defs>
<filter id="filter0_d_4952_109" x="0" y="0" width="133" height="133" filterUnits="userSpaceOnUse" color-interpolation-filters="sRGB">
<feFlood flood-opacity="0" result="BackgroundImageFix"/>
<feColorMatrix in="SourceAlpha" type="matrix" values="0 0 0 0 0 0 0 0 0 0 0 0 0 0 0 0 0 0 127 0" result="hardAlpha"/>
<feOffset/>
<feGaussianBlur stdDeviation="10"/>
<feComposite in2="hardAlpha" operator="out"/>
<feColorMatrix type="matrix" values="0 0 0 0 0.100438 0 0 0 0 0.0924479 0 0 0 0 0.104167 0 0 0 0.5 0"/>
<feBlend mode="normal" in2="BackgroundImageFix" result="effect1_dropShadow_4952_109"/>
<feBlend mode="normal" in="SourceGraphic" in2="effect1_dropShadow_4952_109" result="shape"/>
</filter>
<linearGradient id="paint0_linear_4952_109" x1="66.5" y1="20" x2="66.5" y2="113" gradientUnits="userSpaceOnUse">
<stop stop-color="#302F31"/>
<stop offset="1" stop-color="#273941"/>
</linearGradient>
</defs>
</svg>
