<svg width="133" height="133" viewBox="0 0 133 133" fill="none" xmlns="http://www.w3.org/2000/svg">
<g filter="url(#filter0_d_4955_110)">
<path d="M20 25C20 22.2386 22.2386 20 25 20H108C110.761 20 113 22.2386 113 25V108C113 110.761 110.761 113 108 113H25C22.2386 113 20 110.761 20 108V25Z" fill="url(#paint0_radial_4955_110)"/>
</g>
<g clip-path="url(#clip0_4955_110)">
<path d="M84.2495 48.013C84.2135 47.7505 83.9836 47.6052 83.794 47.5894C83.6043 47.5735 79.9028 47.5173 79.9028 47.5173C79.9028 47.5173 76.8071 44.5107 76.5013 44.2047C76.1955 43.8987 75.5981 43.9915 75.3662 44.0598C75.3628 44.0608 74.7853 44.2396 73.8106 44.5414C73.648 44.0131 73.4081 43.3642 73.0662 42.7121C71.9639 40.6094 70.3501 39.4964 68.3996 39.4935C68.3974 39.4935 68.3954 39.4935 68.393 39.4935C68.2578 39.4935 68.1231 39.5062 67.9882 39.5185C67.9309 39.4495 67.8729 39.381 67.8119 39.3157C66.9627 38.4068 65.8722 37.964 64.5671 38.0023C62.0475 38.0745 59.5396 39.8938 57.5054 43.1247C56.0735 45.3987 54.9857 48.2553 54.6763 50.4662C51.784 51.3619 49.7604 51.9887 49.7166 52.0024C48.2566 52.4605 48.2107 52.5064 48.0193 53.8819C47.8744 54.9232 44.0547 84.4635 44.0547 84.4635L76.0706 89.9999L89.9465 86.5509C89.9465 86.5509 84.2853 48.2755 84.2495 48.013ZM56.4699 49.9107C57.3356 45.8628 60.7274 39.7901 64.6155 39.6783C65.207 39.6659 65.7052 39.7957 66.1306 40.0757C65.4502 40.429 64.7919 40.9368 64.1745 41.599C62.5743 43.3156 61.3485 45.981 60.8597 48.5513C59.3343 49.0236 57.8424 49.4857 56.4699 49.9107ZM68.0474 46.3257C66.3702 46.845 64.5391 47.4121 62.7023 47.9808C63.2194 46.0026 64.1983 44.033 65.4012 42.7426C65.8487 42.2626 66.4747 41.727 67.2159 41.4212C67.9132 42.8742 68.0643 44.9341 68.0474 46.3257ZM69.7222 45.8072C69.7036 44.5314 69.5512 42.757 68.957 41.2231C70.8685 41.5853 71.8097 43.7482 72.2069 45.0378C71.4703 45.2658 70.6312 45.5256 69.7222 45.8072Z" fill="#95BF47"/>
<path d="M83.7928 47.5902C83.6032 47.5744 79.9017 47.5181 79.9017 47.5181C79.9017 47.5181 76.8059 44.5116 76.5001 44.2056C76.3861 44.0914 76.2314 44.033 76.0703 44.0078L76.0711 90.0004L89.9454 86.5517C89.9454 86.5517 84.2843 48.2764 84.2483 48.0138C84.2124 47.7513 83.9824 47.6061 83.7928 47.5902Z" fill="#5E8E3E"/>
<path d="M68.3835 54.721L66.7718 60.7499C66.7718 60.7499 64.9741 59.9313 62.8428 60.0659C59.7179 60.2632 59.6846 62.2344 59.7158 62.7284C59.886 65.4248 66.9794 66.014 67.3781 72.3293C67.6918 77.298 64.7427 80.6967 60.4932 80.965C55.3938 81.2869 52.5859 78.2779 52.5859 78.2779L53.6665 73.6807C53.6665 73.6807 56.4922 75.8127 58.7542 75.6699C60.2318 75.5766 60.7597 74.3749 60.7061 73.525C60.4839 70.0077 54.7079 70.2149 54.343 64.4357C54.0358 59.5717 57.2298 54.6442 64.2774 54.1991C66.9929 54.0278 68.3835 54.721 68.3835 54.721Z" fill="white"/>
</g>
<defs>
<filter id="filter0_d_4955_110" x="0" y="0" width="133" height="133" filterUnits="userSpaceOnUse" color-interpolation-filters="sRGB">
<feFlood flood-opacity="0" result="BackgroundImageFix"/>
<feColorMatrix in="SourceAlpha" type="matrix" values="0 0 0 0 0 0 0 0 0 0 0 0 0 0 0 0 0 0 127 0" result="hardAlpha"/>
<feOffset/>
<feGaussianBlur stdDeviation="10"/>
<feComposite in2="hardAlpha" operator="out"/>
<feColorMatrix type="matrix" values="0 0 0 0 0.584314 0 0 0 0 0.74902 0 0 0 0 0.278431 0 0 0 0.5 0"/>
<feBlend mode="normal" in2="BackgroundImageFix" result="effect1_dropShadow_4955_110"/>
<feBlend mode="normal" in="SourceGraphic" in2="effect1_dropShadow_4955_110" result="shape"/>
</filter>
<radialGradient id="paint0_radial_4955_110" cx="0" cy="0" r="1" gradientUnits="userSpaceOnUse" gradientTransform="translate(66.5 66.5) rotate(90) scale(46.5)">
<stop stop-color="#194547"/>
<stop offset="1" stop-color="#0C2123"/>
</radialGradient>
<clipPath id="clip0_4955_110">
<rect width="52" height="52" fill="white" transform="translate(41 38)"/>
</clipPath>
</defs>
</svg>
