<svg width="133" height="133" viewBox="0 0 133 133" fill="none" xmlns="http://www.w3.org/2000/svg">
<g filter="url(#filter0_d_4957_114)">
<path d="M20 25C20 22.2386 22.2386 20 25 20H108C110.761 20 113 22.2386 113 25V108C113 110.761 110.761 113 108 113H25C22.2386 113 20 110.761 20 108V25Z" fill="url(#paint0_linear_4957_114)"/>
</g>
<g clip-path="url(#clip0_4957_114)">
<path d="M97 50.2017V72.8958C97 73.8703 96.2099 74.6604 95.2353 74.6604H92.5056V56.7619C92.5056 54.6461 90.7909 52.9313 88.6751 52.9313H65.461C65.3461 52.9313 65.2412 52.8663 65.1904 52.7628L62.7954 47.9051C62.1445 46.5862 60.8284 45.7687 59.359 45.7687H53.0469V43.0381C53.0469 42.0635 53.837 41.2734 54.8116 41.2734H67.3822C67.4989 41.2734 67.6024 41.338 67.6527 41.4419L70.0482 46.3006C70.6987 47.618 72.0152 48.437 73.4846 48.437H95.2353C96.2099 48.437 97 49.2271 97 50.2017Z" fill="#90E0DC"/>
<path d="M88.9761 56.7607V80.9183C88.9761 81.8929 88.186 82.683 87.2114 82.683H84.4822V64.7839C84.4822 62.6686 82.767 60.9534 80.6516 60.9534H57.4375C57.3222 60.9534 57.2173 60.8888 57.167 60.7854L54.7715 55.9276C54.1105 54.5886 52.7821 53.7912 51.3351 53.7912H45.0234V51.0616C45.0234 50.087 45.8135 49.2969 46.7881 49.2969H59.3588C59.475 49.2969 59.5785 49.3605 59.6293 49.464L62.0243 54.3227C62.6753 55.6406 63.9913 56.4595 65.4608 56.4595H88.6749C88.8406 56.4595 88.9761 56.595 88.9761 56.7607Z" fill="#90E0DC"/>
<path d="M80.6519 64.4825H57.4378C55.9684 64.4825 54.6518 63.664 54.0013 62.3461C52.7942 59.8966 53.3257 60.9769 51.6059 57.4883C51.5555 57.3839 51.4516 57.3203 51.3353 57.3203H38.7647C37.7901 57.3203 37 58.1104 37 59.085V88.9426C37 89.9172 37.7901 90.7073 38.7647 90.7073H79.1884C80.163 90.7073 80.9531 89.9172 80.9531 88.9426V64.7837C80.9531 64.618 80.8176 64.4825 80.6519 64.4825ZM70.2941 84.9875C70.2941 85.9662 69.4966 86.7522 68.5294 86.7522C67.5635 86.7522 66.7647 85.9672 66.7647 84.9875C66.7647 84.3439 66.7647 84.4813 66.7647 83.839C66.7647 82.8695 67.5516 82.0743 68.5294 82.0743C69.5058 82.0743 70.2941 82.8695 70.2941 83.839V84.9875ZM76.0802 84.9875C76.0802 85.9662 75.2823 86.7522 74.3155 86.7522C73.3437 86.7522 72.5504 85.964 72.5504 84.9875C72.5504 84.3439 72.5504 84.4813 72.5504 83.839C72.5504 82.8686 73.3377 82.0743 74.3155 82.0743C75.2919 82.0743 76.0802 82.8695 76.0802 83.839V84.9875Z" fill="#90E0DC"/>
</g>
<defs>
<filter id="filter0_d_4957_114" x="0" y="0" width="133" height="133" filterUnits="userSpaceOnUse" color-interpolation-filters="sRGB">
<feFlood flood-opacity="0" result="BackgroundImageFix"/>
<feColorMatrix in="SourceAlpha" type="matrix" values="0 0 0 0 0 0 0 0 0 0 0 0 0 0 0 0 0 0 127 0" result="hardAlpha"/>
<feOffset/>
<feGaussianBlur stdDeviation="10"/>
<feComposite in2="hardAlpha" operator="out"/>
<feColorMatrix type="matrix" values="0 0 0 0 0.12549 0 0 0 0 0.427451 0 0 0 0 0.411765 0 0 0 0.5 0"/>
<feBlend mode="normal" in2="BackgroundImageFix" result="effect1_dropShadow_4957_114"/>
<feBlend mode="normal" in="SourceGraphic" in2="effect1_dropShadow_4957_114" result="shape"/>
</filter>
<linearGradient id="paint0_linear_4957_114" x1="66.5" y1="20" x2="66.5" y2="113" gradientUnits="userSpaceOnUse">
<stop stop-color="#206D69"/>
<stop offset="1" stop-color="#273941"/>
</linearGradient>
<clipPath id="clip0_4957_114">
<rect width="60" height="60" fill="white" transform="translate(37 36)"/>
</clipPath>
</defs>
</svg>
