<svg width="133" height="133" viewBox="0 0 133 133" fill="none" xmlns="http://www.w3.org/2000/svg">
<g filter="url(#filter0_d_4956_112)">
<path d="M20 25C20 22.2386 22.2386 20 25 20H108C110.761 20 113 22.2386 113 25V108C113 110.761 110.761 113 108 113H25C22.2386 113 20 110.761 20 108V25Z" fill="url(#paint0_linear_4956_112)"/>
</g>
<g clip-path="url(#clip0_4956_112)">
<path d="M48.9586 59.9798C47.7343 60.3459 46.6607 61.097 45.8971 62.1216C45.1335 63.1462 44.7206 64.3897 44.7197 65.6675V67.2312L34.3052 58.2225C34.2175 58.1467 34.1456 58.0544 34.0936 57.9508C34.0416 57.8473 34.0106 57.7344 34.0023 57.6189C33.994 57.5033 34.0085 57.3872 34.0451 57.2772C34.0817 57.1673 34.1397 57.0656 34.2156 56.9781L51.9959 36.4146C52.0717 36.3269 52.164 36.255 52.2676 36.203C52.3711 36.151 52.484 36.12 52.5996 36.1117C52.7151 36.1033 52.8313 36.1179 52.9412 36.1545C53.0512 36.1911 53.1529 36.249 53.2404 36.3249L58.143 40.5639L45.6234 46.2696C44.9842 46.5635 44.4874 47.0986 44.2415 47.7578C43.9956 48.417 44.0207 49.1467 44.3113 49.7875L48.9586 59.9798ZM45.9247 49.0525L50.7948 59.733H57.6158C57.8969 59.7337 58.1775 59.7565 58.455 59.801V45.5595C58.4552 44.8546 58.7352 44.1787 59.2336 43.6803C59.732 43.1819 60.408 42.9018 61.1128 42.9016H74.9376L72.262 37.0422C72.214 36.9366 72.1457 36.8416 72.061 36.7625C71.9763 36.6833 71.8768 36.6217 71.7682 36.5811C71.6596 36.5405 71.5441 36.5216 71.4283 36.5257C71.3124 36.5297 71.1985 36.5566 71.093 36.6047L46.3586 47.8833C46.2533 47.9315 46.1585 48 46.0796 48.0848C46.0007 48.1697 45.9394 48.2693 45.8991 48.3779C45.8588 48.4865 45.8403 48.602 45.8447 48.7177C45.849 48.8335 45.8762 48.9473 45.9247 49.0525ZM82.8163 51.7386H88.6655L82.117 45.1936V51.0392C82.1183 51.2243 82.1924 51.4015 82.3232 51.5323C82.4541 51.6632 82.6312 51.7373 82.8163 51.7386ZM80.349 44.6736V51.0392C80.3485 51.3636 80.4119 51.6848 80.5357 51.9846C80.6595 52.2844 80.8411 52.5568 81.0703 52.7863C81.2995 53.0158 81.5716 53.1978 81.8712 53.322C82.1708 53.4463 82.492 53.5102 82.8163 53.5101H89.1819V65.5205C87.8388 65.705 86.5603 66.212 85.4558 66.998H67.4672C67.4362 66.9847 67.4062 66.9691 67.3775 66.9514C67.0853 66.7399 66.8139 66.5009 66.5671 66.2377L65.7624 65.4523H83.9531C84.1881 65.4523 84.4135 65.359 84.5796 65.1928C84.7458 65.0267 84.8391 64.8014 84.8391 64.5664C84.8391 64.3314 84.7458 64.1061 84.5796 63.9399C84.4135 63.7738 84.1881 63.6805 83.9531 63.6805H65.4554C65.2633 63.6809 65.0765 63.7438 64.9231 63.8594C64.7697 63.9751 64.6579 64.1374 64.6046 64.322L62.2313 62.006C61.7163 61.4759 61.1451 61.0033 60.5279 60.5966C60.4275 60.5351 60.327 60.4783 60.2266 60.4209V45.5595C60.2271 45.3246 60.3206 45.0996 60.4866 44.9335C60.6527 44.7675 60.8777 44.674 61.1126 44.6735L80.349 44.6736ZM64.5696 51.6418C64.5696 51.8768 64.6629 52.1021 64.8291 52.2682C64.9952 52.4344 65.2206 52.5277 65.4555 52.5277H77.1717C77.4066 52.5277 77.632 52.4344 77.7981 52.2682C77.9643 52.1021 78.0576 51.8768 78.0576 51.6418C78.0576 51.4068 77.9643 51.1815 77.7981 51.0153C77.632 50.8492 77.4066 50.7559 77.1717 50.7559H65.4554C65.2206 50.7563 64.9955 50.8498 64.8295 51.0159C64.6635 51.1819 64.57 51.407 64.5696 51.6418ZM84.839 60.2595C84.839 60.0245 84.7456 59.7992 84.5795 59.633C84.4133 59.4669 84.188 59.3736 83.953 59.3736H65.4554C65.2204 59.3736 64.9951 59.4669 64.8289 59.633C64.6628 59.7992 64.5695 60.0245 64.5695 60.2595C64.5695 60.4945 64.6628 60.7198 64.8289 60.886C64.9951 61.0521 65.2204 61.1454 65.4554 61.1454H83.9531C84.1881 61.1454 84.4134 61.0521 84.5795 60.8859C84.7456 60.7198 84.839 60.4944 84.839 60.2595ZM65.4554 55.0669C65.2204 55.0669 64.9951 55.1603 64.8289 55.3264C64.6628 55.4926 64.5695 55.7179 64.5695 55.9529C64.5695 56.1878 64.6628 56.4132 64.8289 56.5793C64.9951 56.7455 65.2204 56.8388 65.4554 56.8388H83.9531C84.1881 56.8388 84.4135 56.7455 84.5796 56.5793C84.7458 56.4132 84.8391 56.1878 84.8391 55.9529C84.8391 55.7179 84.7458 55.4926 84.5796 55.3264C84.4135 55.1603 84.1881 55.0669 83.9531 55.0669H65.4554ZM96.9999 73.8765C96.9993 75.4174 96.4644 76.9104 95.4865 78.1011C94.5085 79.2919 93.1479 80.1067 91.6366 80.4069C90.1252 80.707 88.5565 80.4739 87.1978 79.7471C85.839 79.0204 84.7743 77.8451 84.1849 76.4214C83.5955 74.9976 83.518 73.4136 83.9655 71.9392C84.413 70.4647 85.3579 69.191 86.6392 68.3351C87.9205 67.4791 89.4589 67.0939 90.9924 67.245C92.5258 67.3961 93.9594 68.0742 95.049 69.1638C95.6685 69.7821 96.1598 70.5168 96.4946 71.3255C96.8294 72.1343 97.0011 73.0012 96.9999 73.8765ZM94.8482 70.5305C94.7663 70.4478 94.6688 70.3822 94.5614 70.3374C94.454 70.2926 94.3388 70.2696 94.2224 70.2696C94.106 70.2696 93.9908 70.2926 93.8834 70.3374C93.776 70.3822 93.6785 70.4478 93.5966 70.5305L88.7767 75.3468L87.0804 73.647C86.914 73.481 86.6884 73.388 86.4534 73.3883C86.2183 73.3886 85.993 73.4823 85.827 73.6487C85.6611 73.8152 85.568 74.0407 85.5683 74.2758C85.5686 74.5108 85.6623 74.7361 85.8288 74.9021L88.1529 77.2259C88.3191 77.3914 88.5441 77.4842 88.7786 77.4842C89.0131 77.4842 89.2381 77.3914 89.4044 77.2259L94.8483 71.7821C95.0137 71.6158 95.1065 71.3908 95.1065 71.1563C95.1064 70.9217 95.0136 70.6968 94.8482 70.5305ZM90.3367 82.3113C91.312 82.3119 92.2801 82.1445 93.1985 81.8164V90.0217C93.1946 91.3127 92.6798 92.5496 91.7666 93.4622C90.8534 94.3748 89.6161 94.8887 88.3251 94.8918H51.365C50.074 94.8888 48.8366 94.3749 47.9233 93.4623C47.0101 92.5498 46.4952 91.3128 46.4913 90.0217V65.6675C46.4928 64.5644 46.9315 63.5067 47.7112 62.7263C48.491 61.9459 49.5482 61.5063 50.6514 61.5039H57.6158C58.3159 61.5073 58.9999 61.7141 59.5846 62.0993C60.0962 62.4369 60.5689 62.8302 60.994 63.2719L65.3298 67.5073C65.6662 67.8582 66.0373 68.1741 66.4372 68.4505C66.7444 68.6552 67.1045 68.7661 67.4736 68.7697H83.6268C82.6751 70.0199 82.0915 71.5112 81.942 73.0753C81.7924 74.6395 82.0828 76.2143 82.7805 77.6222C83.4781 79.0302 84.5552 80.2152 85.8903 81.0437C87.2254 81.8722 88.7654 82.3113 90.3367 82.3113ZM52.1183 82.426C52.1183 82.661 52.2117 82.8863 52.3778 83.0525C52.544 83.2186 52.7693 83.312 53.0043 83.312H61.64C61.8749 83.312 62.1003 83.2186 62.2664 83.0525C62.4326 82.8863 62.5259 82.661 62.5259 82.426C62.5259 82.1911 62.4326 81.9657 62.2664 81.7996C62.1003 81.6334 61.8749 81.5401 61.64 81.5401H53.0039C52.8875 81.5397 52.7721 81.5624 52.6645 81.6068C52.5568 81.6512 52.459 81.7164 52.3767 81.7988C52.2944 81.8811 52.2291 81.9789 52.1848 82.0866C52.1404 82.1942 52.1177 82.3096 52.1181 82.426H52.1183ZM87.572 88.4799C87.572 88.245 87.4786 88.0196 87.3125 87.8535C87.1463 87.6873 86.921 87.594 86.686 87.594H53.0039C52.7695 87.594 52.5446 87.6871 52.3788 87.8529C52.2131 88.0187 52.1199 88.2435 52.1199 88.478C52.1199 88.7124 52.2131 88.9372 52.3788 89.103C52.5446 89.2688 52.7695 89.3619 53.0039 89.3619H86.6859C86.9203 89.3622 87.1453 89.2695 87.3114 89.104C87.4775 88.9386 87.5711 88.714 87.5717 88.4796L87.572 88.4799Z" fill="white"/>
</g>
<defs>
<filter id="filter0_d_4956_112" x="0" y="0" width="133" height="133" filterUnits="userSpaceOnUse" color-interpolation-filters="sRGB">
<feFlood flood-opacity="0" result="BackgroundImageFix"/>
<feColorMatrix in="SourceAlpha" type="matrix" values="0 0 0 0 0 0 0 0 0 0 0 0 0 0 0 0 0 0 127 0" result="hardAlpha"/>
<feOffset/>
<feGaussianBlur stdDeviation="10"/>
<feComposite in2="hardAlpha" operator="out"/>
<feColorMatrix type="matrix" values="0 0 0 0 0.0666667 0 0 0 0 0.0588235 0 0 0 0 0.847059 0 0 0 0.5 0"/>
<feBlend mode="normal" in2="BackgroundImageFix" result="effect1_dropShadow_4956_112"/>
<feBlend mode="normal" in="SourceGraphic" in2="effect1_dropShadow_4956_112" result="shape"/>
</filter>
<linearGradient id="paint0_linear_4956_112" x1="66.5" y1="20" x2="66.5" y2="113" gradientUnits="userSpaceOnUse">
<stop stop-color="#0F00E0"/>
<stop offset="1" stop-color="#279191"/>
</linearGradient>
<clipPath id="clip0_4956_112">
<rect width="63" height="63" fill="white" transform="translate(34 34)"/>
</clipPath>
</defs>
</svg>
