<svg width="133" height="133" viewBox="0 0 133 133" fill="none" xmlns="http://www.w3.org/2000/svg">
<g filter="url(#filter0_d_4956_111)">
<rect x="20" y="20" width="93" height="93" rx="5" fill="url(#paint0_linear_4956_111)"/>
</g>
<path fill-rule="evenodd" clip-rule="evenodd" d="M71.2855 63.3714H42.1829C40.8695 63.3714 39.8672 62.4036 39.8672 61.0902V56.2513H46.538V57.9449C46.538 58.3251 46.849 58.6362 47.2292 58.6362H66.2737C66.6539 58.6362 66.965 58.3597 66.965 57.9449V56.2513H73.7049V61.0902C73.7049 62.3691 72.6334 63.3714 71.2855 63.3714ZM39.8672 54.8688V50.4792H46.538V54.8688H39.8672ZM39.8672 49.0967V42.6678C39.8672 42.2876 40.1783 41.9766 40.5585 41.9766H71.2855C72.6334 41.9766 73.7049 43.0135 73.7049 44.2923V49.0967H66.965V47.3685C66.965 46.9883 66.6539 46.6772 66.2737 46.6772H47.2292C46.849 46.6772 46.538 46.9883 46.538 47.3685V49.0967H39.8672ZM73.7049 50.4792V54.8688H66.965V50.4792H73.7049ZM47.9205 57.2537H65.5825V48.0597H47.9205V57.2537Z" fill="white"/>
<path fill-rule="evenodd" clip-rule="evenodd" d="M55.7664 43.3564H40.5585C40.1783 43.3564 39.8672 43.0453 39.8672 42.6651V39.1051C39.8672 37.9645 40.8004 37.0312 41.941 37.0312H51.3769C51.5842 37.0312 51.7916 37.1004 51.8953 37.2386L56.2849 42.2158C56.4577 42.4232 56.4923 42.6997 56.3886 42.9416C56.2849 43.1836 56.0429 43.3564 55.7664 43.3564Z" fill="white"/>
<path fill-rule="evenodd" clip-rule="evenodd" d="M67.1735 43.3564H55.7675C55.5601 43.3564 55.3873 43.2873 55.2491 43.1145L51.8964 39.3125C51.7236 39.1051 51.689 38.8286 51.7927 38.5866C51.8964 38.3447 52.1383 38.1719 52.4148 38.1719H63.8208C66.0329 38.1719 67.8302 40.0037 67.8302 42.2158V42.6651C67.8302 43.0453 67.5191 43.3564 67.1735 43.3564ZM56.0786 41.9739H66.4477C66.344 40.6259 65.2034 39.5544 63.8208 39.5544H53.9356L56.0786 41.9739Z" fill="white"/>
<path fill-rule="evenodd" clip-rule="evenodd" d="M90.7458 95.9638H67.9685C66.5513 95.9638 65.4453 94.8578 65.4453 93.4407V77.6797H93.1653V93.4407C93.1653 94.8232 92.0938 95.9638 90.7458 95.9638ZM85.2157 89.3967H73.4641C73.0839 89.3967 72.7728 89.0857 72.7728 88.7055C72.7728 88.3253 73.0839 88.0142 73.4641 88.0142H85.2157C85.5959 88.0142 85.9069 88.3253 85.9069 88.7055C85.9069 89.0857 85.5959 89.3967 85.2157 89.3967ZM85.2157 92.5075H73.4641C73.0839 92.5075 72.7728 92.1964 72.7728 91.8162C72.7728 91.436 73.0839 91.1249 73.4641 91.1249H85.2157C85.5959 91.1249 85.9069 91.436 85.9069 91.8162C85.9069 92.1964 85.5959 92.5075 85.2157 92.5075ZM85.4231 86.0441H73.2567C72.8765 86.0441 72.5654 85.733 72.5654 85.3528V81.7928C72.5654 81.4126 72.8765 81.1015 73.2567 81.1015H85.3885C85.7687 81.1015 86.0798 81.4126 86.0798 81.7928V85.3528C86.1143 85.733 85.8033 86.0441 85.4231 86.0441ZM73.948 84.6615H84.6972V82.484H73.948V84.6615Z" fill="white"/>
<path fill-rule="evenodd" clip-rule="evenodd" d="M94.0999 76.5027H64.5135C63.8913 76.5027 63.4766 76.0879 63.4766 75.4658V71.3182C63.4766 70.7306 63.8913 70.2812 64.5135 70.2812H94.0999C94.6875 70.2812 95.1368 70.7306 95.1368 71.3182V75.4658C95.1368 76.0879 94.6875 76.5027 94.0999 76.5027Z" fill="white"/>
<path fill-rule="evenodd" clip-rule="evenodd" d="M66.1328 85.3884H56.8006C56.4204 85.3884 56.1094 85.0773 56.1094 84.6971V76.2982C56.1094 75.918 56.4204 75.6069 56.8006 75.6069C57.1808 75.6069 57.4919 75.918 57.4919 76.2982V84.0059H66.1328C66.513 84.0059 66.8241 84.3169 66.8241 84.6971C66.8241 85.0773 66.513 85.3884 66.1328 85.3884ZM56.8006 72.7036C56.4204 72.7036 56.1094 72.3925 56.1094 72.0123V62.7147C56.1094 62.3345 56.4204 62.0234 56.8006 62.0234C57.1808 62.0234 57.4919 62.3345 57.4919 62.7147V72.0123C57.4919 72.3925 57.1808 72.7036 56.8006 72.7036Z" fill="white"/>
<path fill-rule="evenodd" clip-rule="evenodd" d="M56.8018 76.9887C55.1427 76.9887 53.8984 75.7444 53.8984 74.0854C53.8984 72.53 55.1773 71.3203 56.8018 71.3203C58.3226 71.3203 59.5669 72.5646 59.5669 74.0854C59.5669 75.7099 58.3571 76.9887 56.8018 76.9887Z" fill="white"/>
<path fill-rule="evenodd" clip-rule="evenodd" d="M79.3367 71.2173C78.9565 71.2173 78.6454 70.9063 78.6454 70.5261V63.717C78.6454 63.3368 78.9565 63.0258 79.3367 63.0258C79.7169 63.0258 80.028 63.3368 80.028 63.717V70.5261C80.028 70.9063 79.7169 71.2173 79.3367 71.2173ZM79.3367 60.157C78.9565 60.157 78.6454 59.8459 78.6454 59.4657V53.3825H73.0116C72.6314 53.3825 72.3203 53.0715 72.3203 52.6913C72.3203 52.3111 72.6314 52 73.0116 52H79.3367C79.7169 52 80.028 52.3111 80.028 52.6913V59.4657C80.028 59.8459 79.7169 60.157 79.3367 60.157Z" fill="white"/>
<path fill-rule="evenodd" clip-rule="evenodd" d="M79.3375 64.4073C77.7476 64.4073 76.4688 63.1976 76.4688 61.6422C76.4688 60.0177 77.713 58.7734 79.3375 58.7734C80.8929 58.7734 82.1026 60.0523 82.1026 61.6422C82.1026 63.1976 80.8583 64.4073 79.3375 64.4073Z" fill="white"/>
<defs>
<filter id="filter0_d_4956_111" x="0" y="0" width="133" height="133" filterUnits="userSpaceOnUse" color-interpolation-filters="sRGB">
<feFlood flood-opacity="0" result="BackgroundImageFix"/>
<feColorMatrix in="SourceAlpha" type="matrix" values="0 0 0 0 0 0 0 0 0 0 0 0 0 0 0 0 0 0 127 0" result="hardAlpha"/>
<feOffset/>
<feGaussianBlur stdDeviation="10"/>
<feComposite in2="hardAlpha" operator="out"/>
<feColorMatrix type="matrix" values="0 0 0 0 0.67451 0 0 0 0 0.176471 0 0 0 0 0.360784 0 0 0 0.5 0"/>
<feBlend mode="normal" in2="BackgroundImageFix" result="effect1_dropShadow_4956_111"/>
<feBlend mode="normal" in="SourceGraphic" in2="effect1_dropShadow_4956_111" result="shape"/>
</filter>
<linearGradient id="paint0_linear_4956_111" x1="66.5" y1="20" x2="66.5" y2="113" gradientUnits="userSpaceOnUse">
<stop stop-color="#AB2359"/>
<stop offset="1" stop-color="#B98373"/>
</linearGradient>
</defs>
</svg>
