<svg width="56" height="56" viewBox="0 0 56 56" fill="none" xmlns="http://www.w3.org/2000/svg">
<path d="M23.9167 19.5207L18.3333 26.4998L23.9167 33.479M35.0833 19.5207L40.6667 26.4998L35.0833 33.479M18.0542 48.8333C23.3823 51.5665 29.5114 52.3068 35.3371 50.9208C41.1627 49.5349 46.3018 46.1137 49.8282 41.274C53.3547 36.4342 55.0365 30.494 54.5708 24.5239C54.105 18.5538 51.5223 12.9463 47.288 8.71201C43.0536 4.47767 37.4462 1.89492 31.476 1.42917C25.5059 0.963424 19.5658 2.64531 14.726 6.17174C9.88621 9.69817 6.46509 14.8373 5.07912 20.6629C3.69314 26.4886 4.43346 32.6177 7.16666 37.9458L1.58333 54.4166L18.0542 48.8333Z" stroke="white" stroke-width="2" stroke-linecap="round" stroke-linejoin="round"/>
</svg>
