<svg width="17" height="22" viewBox="0 0 17 22" fill="none" xmlns="http://www.w3.org/2000/svg">
<g clip-path="url(#clip0_5013_106)">
<path fill-rule="evenodd" clip-rule="evenodd" d="M8.49703 0C5.5776 0 3.21094 2.36667 3.21094 5.2861C3.21094 8.20553 5.5776 10.5722 8.49703 10.5722C11.4164 10.5722 13.7831 8.20553 13.7831 5.2861C13.7831 2.36667 11.4164 0 8.49703 0Z" fill="#111B20"/>
<path fill-rule="evenodd" clip-rule="evenodd" d="M5.32834 11.6328C3.57045 11.6328 1.87993 12.4347 0.889234 13.642C0.386419 14.2547 0.0329485 15.0129 0.00217284 15.8531C-0.0292583 16.7113 0.280497 17.5488 0.91929 18.2797C2.47611 20.0606 4.96177 21.1478 8.5 21.1478C12.0382 21.1478 14.5239 20.0606 16.0807 18.2797C16.7196 17.5488 17.0292 16.7113 16.9978 15.8531C16.9671 15.0129 16.6136 14.2547 16.1108 13.642C15.1201 12.4347 13.4296 11.6328 11.6717 11.6328H5.32834Z" fill="#111B20"/>
</g>
<defs>
<clipPath id="clip0_5013_106">
<rect width="17" height="22" fill="white"/>
</clipPath>
</defs>
</svg>
