<svg width="22" height="24" viewBox="0 0 22 24" fill="none" xmlns="http://www.w3.org/2000/svg">
<path d="M0.964014 23.258C0.938014 23.258 0.938014 23.258 0.912014 23.258C0.574014 23.232 0.340014 22.946 0.366014 22.634C0.704014 17.668 5.38401 13.794 11 13.794C16.616 13.794 21.296 17.668 21.634 22.608C21.66 22.946 21.4 23.206 21.088 23.232C20.75 23.258 20.49 22.998 20.464 22.686C20.152 18.344 15.992 14.964 11 14.964C5.98202 14.964 1.82201 18.37 1.53601 22.712C1.51001 23.024 1.25001 23.258 0.964014 23.258Z" fill="#206D69"/>
<path d="M11 12.598C7.72402 12.598 5.07202 9.946 5.07202 6.67C5.07202 3.394 7.72402 0.742004 11 0.742004C14.276 0.742004 16.928 3.394 16.928 6.67C16.928 9.946 14.276 12.598 11 12.598ZM11 1.938C8.40002 1.938 6.26802 4.07 6.26802 6.67C6.26802 9.27001 8.40002 11.402 11 11.402C13.6 11.402 15.732 9.27001 15.732 6.67C15.732 4.07 13.6 1.938 11 1.938Z" fill="#206D69"/>
</svg>
