<svg width="27" height="27" viewBox="0 0 27 27" fill="none" xmlns="http://www.w3.org/2000/svg">
<path d="M21.8181 19.1456C22.9408 19.1338 23.9224 18.3756 24.2104 17.2882L26.9788 6.9787C27.0669 6.64367 26.873 6.30276 26.538 6.20872C26.4851 6.19696 26.4322 6.18521 26.3793 6.18521H5.55446L4.13792 0.954026C4.06739 0.68365 3.82052 0.489685 3.53839 0.489685H0V1.74164H3.04466L4.41418 6.85527C4.4083 6.89641 4.4083 6.93756 4.41418 6.9787L7.23549 17.3235C7.25312 17.4058 7.28251 17.494 7.3119 17.5762L8.26409 21.0441C7.34716 21.532 6.72412 22.4959 6.72412 23.6068C6.72412 25.2114 8.0231 26.5104 9.62772 26.5104C11.2323 26.5104 12.5313 25.2114 12.5313 23.6068C12.5313 23.1072 12.402 22.6311 12.1787 22.2197C12.1258 22.1256 12.0729 22.0316 12.0082 21.9375H19.3965C19.0674 22.4077 18.8675 22.9838 18.8675 23.6068C18.8675 25.2114 20.1665 26.5104 21.7711 26.5104C23.3757 26.5104 24.6747 25.2114 24.6747 23.6068C24.6747 22.8486 24.3867 22.1609 23.9106 21.6436C23.3992 21.0617 22.6469 20.6914 21.8064 20.6856H9.51605L9.07522 19.0692C9.2633 19.1162 9.45727 19.1456 9.65123 19.1456H21.8181ZM21.777 21.9375C22.6998 21.9375 23.4463 22.684 23.4463 23.6068C23.4463 24.5296 22.6998 25.2761 21.777 25.2761C20.8542 25.2761 20.1077 24.5296 20.1077 23.6068C20.1077 22.684 20.8542 21.9375 21.777 21.9375ZM9.62772 21.9375C10.5505 21.9375 11.2911 22.6899 11.2911 23.6068C11.2911 24.5296 10.5446 25.2761 9.62185 25.2761C8.69904 25.2761 7.95845 24.5296 7.95845 23.6068C7.95845 22.684 8.70492 21.9375 9.62772 21.9375ZM8.51095 17.1002L7.10618 11.963L5.85422 7.44892H25.5387L22.9937 17.0061C22.8526 17.5527 22.3648 17.9348 21.8005 17.9465H9.63948C9.12812 17.9172 8.68141 17.588 8.51095 17.1002Z" fill="#206D69"/>
</svg>
