<svg width="52" height="52" viewBox="0 0 52 52" fill="none" xmlns="http://www.w3.org/2000/svg">
<g clip-path="url(#clip0_15_4213)">
<path d="M0.000823975 25.9992C0.000823975 36.2898 5.98063 45.184 14.6534 49.3967L2.25101 15.4183C0.810153 18.6506 0.000823975 22.2293 0.000823975 25.9992Z" fill="white"/>
<path d="M26.4562 28.2728L18.6548 50.9407C20.9855 51.6259 23.447 52 26 52C29.0268 52 31.9311 51.4767 34.6334 50.5264C34.5646 50.414 34.5 50.2975 34.448 50.1683L26.4562 28.2728Z" fill="white"/>
<path d="M43.5519 24.6883C43.5519 21.4736 42.3962 19.2494 41.4083 17.5184C40.089 15.3739 38.8528 13.5607 38.8528 11.4203C38.8528 9.02926 40.6652 6.80423 43.219 6.80423C43.3347 6.80423 43.4437 6.82017 43.5545 6.82604C38.9325 2.58734 32.7682 0 26 0C16.9154 0 8.92609 4.66056 4.27811 11.7181C4.88867 11.7374 5.46317 11.7499 5.95044 11.7499C8.66861 11.7499 12.8805 11.4195 12.8805 11.4195C14.2811 11.3356 14.4455 13.3963 13.0449 13.5607C13.0449 13.5607 11.6367 13.7267 10.0692 13.8097L19.5371 41.9702L25.2276 24.9064L21.1792 13.8097C19.777 13.7267 18.4502 13.5607 18.4502 13.5607C17.0496 13.4776 17.2131 11.3365 18.6162 11.4195C18.6162 11.4195 22.9094 11.7499 25.4641 11.7499C28.1831 11.7499 32.3933 11.4195 32.3933 11.4195C33.7955 11.3356 33.9599 13.3963 32.5585 13.5607C32.5585 13.5607 31.1487 13.7267 29.5837 13.8097L38.9794 41.7563L41.5752 33.0919C42.6948 29.494 43.5519 26.9125 43.5519 24.6883Z" fill="white"/>
<path d="M48.9908 16.1992C48.9908 18.8368 48.4977 21.8024 47.0124 25.5119L39.0717 48.4708C46.801 43.9654 51.9992 35.5903 51.9992 26C51.9992 21.4787 50.8443 17.2291 48.8147 13.5254C48.9279 14.3541 48.9908 15.2414 48.9908 16.1992Z" fill="white"/>
<path d="M38.8536 11.4195C38.8536 9.02842 40.666 6.80339 43.2198 6.80339C43.3356 6.80339 43.4446 6.81933 43.5553 6.8252C38.9325 2.58734 32.7682 0 26 0C16.9154 0 8.92609 4.66056 4.27811 11.7181C4.88867 11.7374 5.46317 11.7499 5.95044 11.7499C8.66861 11.7499 12.8805 11.4195 12.8805 11.4195C14.2811 11.3356 14.4455 13.3963 13.0449 13.5607C13.0449 13.5607 11.6367 13.7267 10.0692 13.8097L13.6797 24.5482C16.1362 25.4154 18.7974 25.8926 21.5768 25.8926C22.7333 25.8926 23.8697 25.8096 24.981 25.6511L25.2284 24.9072L21.1801 13.8106C19.7778 13.7276 18.451 13.5615 18.451 13.5615C17.0504 13.4785 17.2139 11.3373 18.6171 11.4203C18.6171 11.4203 22.9103 11.7508 25.4649 11.7508C28.1839 11.7508 32.3941 11.4203 32.3941 11.4203C33.7964 11.3365 33.9608 13.3971 32.5593 13.5615C32.5593 13.5615 31.1495 13.7276 29.5845 13.8106L32.7128 23.1166C35.8881 21.4091 38.5785 18.9978 40.5402 16.1052C39.595 14.536 38.8536 13.0751 38.8536 11.4195Z" fill="white"/>
<path d="M26 0C17.8421 0 10.5758 3.76569 5.80872 9.64317C9.9929 10.5129 14.588 10.9951 19.4105 10.9951C28.542 10.9951 36.8618 9.26996 43.1175 6.44024C38.545 2.43386 32.5577 0 26 0Z" fill="white"/>
</g>
<defs>
<clipPath id="clip0_15_4213">
<rect width="52" height="52" fill="white"/>
</clipPath>
</defs>
</svg>
