<svg width="59" height="59" viewBox="0 0 59 59" fill="none" xmlns="http://www.w3.org/2000/svg">
<path d="M34.916 7.11515V37.3359H37.6816V4.26367H15.7871V6.56836H34.376C34.4482 6.56575 34.5202 6.57817 34.5873 6.60481C34.6545 6.63146 34.7153 6.67176 34.7661 6.72316C34.8169 6.77456 34.8564 6.83594 34.8822 6.90342C34.908 6.97089 34.9195 7.04299 34.916 7.11515Z" fill="#206D69"/>
<path d="M40.6777 27.0081C40.6795 26.8492 40.7415 26.6968 40.8512 26.5819C40.9609 26.4669 41.1101 26.3979 41.2688 26.3887H50.4291C50.5908 26.3967 50.7437 26.4646 50.8583 26.579C50.9728 26.6935 51.0407 26.8464 51.0488 27.0081V29.9609H52.2012V25.1211H38.834V37.3359H40.6777V27.0081Z" fill="#206D69"/>
<path d="M13.8283 8.47534L10.124 12.0996H13.8283V8.47534Z" fill="#206D69"/>
<path d="M21.3967 15.6752C21.8539 15.6752 22.3008 15.5396 22.6809 15.2856C23.061 15.0316 23.3573 14.6705 23.5322 14.2481C23.7072 13.8257 23.7529 13.361 23.6637 12.9126C23.5745 12.4642 23.3544 12.0523 23.0311 11.729C22.7078 11.4057 22.2959 11.1856 21.8475 11.0964C21.3991 11.0072 20.9343 11.053 20.5119 11.228C20.0895 11.4029 19.7285 11.6992 19.4745 12.0794C19.2205 12.4595 19.085 12.9064 19.085 13.3636C19.0857 13.9765 19.3294 14.5641 19.7628 14.9974C20.1962 15.4308 20.7838 15.6745 21.3967 15.6752Z" fill="#206D69"/>
<path d="M49.8965 27.541H41.8301V37.3359H43.7891V30.524C43.7935 30.3708 43.8584 30.2256 43.9695 30.1201C44.0806 30.0146 44.229 29.9574 44.3822 29.9609H49.8965V27.541Z" fill="#206D69"/>
<path d="M44.9414 31.1133H53.8145V37.3359H44.9414V31.1133Z" fill="#206D69"/>
<path d="M4.14844 50.0117H54.8516V54.7363H4.14844V50.0117Z" fill="#206D69"/>
<path d="M23.5983 29.8457H4.14844V35.0312H27.253L23.5983 29.8457Z" fill="#206D69"/>
<path d="M4.14844 43.0977H54.8516V48.8594H4.14844V43.0977Z" fill="#206D69"/>
<path d="M54.8516 38.4883H30.0055C29.9143 38.4913 29.8237 38.472 29.7415 38.4321C29.6594 38.3921 29.5883 38.3328 29.5342 38.2592L28.0635 36.1836H4.14844V41.9453H54.8516V38.4883Z" fill="#206D69"/>
<path d="M8.18139 25.9277H7.25559L4.84766 28.6934H8.18139V25.9277Z" fill="#206D69"/>
<path d="M24.3688 28.9303L25.018 29.8457H29.1349C29.2877 29.8457 29.4343 29.9064 29.5424 30.0145C29.6504 30.1225 29.7111 30.2691 29.7111 30.4219C29.7111 30.5747 29.6504 30.7212 29.5424 30.8293C29.4343 30.9373 29.2877 30.998 29.1349 30.998H25.8284L30.3047 37.3359H33.7637V7.7207H14.9805V12.6247C14.9787 12.7846 14.9168 12.9379 14.8071 13.0542C14.6973 13.1704 14.5478 13.241 14.3883 13.252H9.33398V28.6934H23.8975C23.9894 28.6919 24.0802 28.7127 24.1623 28.7539C24.2444 28.7952 24.3152 28.8557 24.3688 28.9303ZM21.3967 9.89967C22.0818 9.89969 22.7515 10.1029 23.3212 10.4835C23.8908 10.8641 24.3347 11.4051 24.5969 12.0381C24.8591 12.6711 24.9276 13.3675 24.794 14.0395C24.6603 14.7114 24.3304 15.3286 23.8459 15.813C23.3615 16.2975 22.7443 16.6274 22.0723 16.761C21.4004 16.8947 20.7039 16.8261 20.071 16.5639C19.438 16.3017 18.897 15.8577 18.5164 15.2881C18.1358 14.7184 17.9327 14.0487 17.9327 13.3636C17.9337 12.4452 18.299 11.5647 18.9484 10.9153C19.5978 10.2659 20.4783 9.90068 21.3967 9.89967ZM13.4906 18.0918H29.2502C29.403 18.0918 29.5495 18.1525 29.6576 18.2606C29.7656 18.3686 29.8263 18.5152 29.8263 18.668C29.8263 18.8208 29.7656 18.9673 29.6576 19.0754C29.5495 19.1834 29.403 19.2441 29.2502 19.2441H13.4906C13.3378 19.2441 13.1912 19.1834 13.0832 19.0754C12.9751 18.9673 12.9144 18.8208 12.9144 18.668C12.9144 18.5152 12.9751 18.3686 13.0832 18.2606C13.1912 18.1525 13.3378 18.0918 13.4906 18.0918ZM13.4906 20.9727H29.2502C29.403 20.9727 29.5495 21.0334 29.6576 21.1414C29.7656 21.2495 29.8263 21.396 29.8263 21.5488C29.8263 21.7016 29.7656 21.8482 29.6576 21.9562C29.5495 22.0643 29.403 22.125 29.2502 22.125H13.4906C13.3378 22.125 13.1912 22.0643 13.0832 21.9562C12.9751 21.8482 12.9144 21.7016 12.9144 21.5488C12.9144 21.396 12.9751 21.2495 13.0832 21.1414C13.1912 21.0334 13.3378 20.9727 13.4906 20.9727ZM13.4906 23.9688H29.2502C29.403 23.9688 29.5495 24.0295 29.6576 24.1375C29.7656 24.2456 29.8263 24.3921 29.8263 24.5449C29.8263 24.6977 29.7656 24.8443 29.6576 24.9523C29.5495 25.0604 29.403 25.1211 29.2502 25.1211H13.4906C13.3378 25.1211 13.1912 25.0604 13.0832 24.9523C12.9751 24.8443 12.9144 24.6977 12.9144 24.5449C12.9144 24.3921 12.9751 24.2456 13.0832 24.1375C13.1912 24.0295 13.3378 23.9688 13.4906 23.9688ZM12.9144 27.4258C12.9144 27.273 12.9751 27.1264 13.0832 27.0184C13.1912 26.9103 13.3378 26.8496 13.4906 26.8496H29.2502C29.403 26.8496 29.5495 26.9103 29.6576 27.0184C29.7656 27.1264 29.8263 27.273 29.8263 27.4258C29.8263 27.5786 29.7656 27.7251 29.6576 27.8332C29.5495 27.9412 29.403 28.002 29.2502 28.002H13.4906C13.3378 28.002 13.1912 27.9412 13.0832 27.8332C12.9751 27.7251 12.9144 27.5786 12.9144 27.4258Z" fill="#206D69"/>
</svg>
