<svg width="59" height="59" viewBox="0 0 59 59" fill="none" xmlns="http://www.w3.org/2000/svg">
<g clip-path="url(#clip0_83_57)">
<path d="M58.18 31.86C57.2673 30.4495 55.7185 29.6106 54.0315 29.6106C53.082 29.6106 52.1509 29.8872 51.3489 30.4034C49.2654 31.7586 48.5464 34.4228 49.5604 36.6169L43.8725 40.4795C42.6832 38.8017 41.07 37.4373 39.1801 36.5708L43.9278 23.0745C44.9234 23.3603 45.9743 23.5078 47.0529 23.5078C49.671 23.5078 52.1048 22.6505 54.0592 21.1847C54.1053 21.1478 54.1421 21.1202 54.179 21.0833C56.9815 18.9353 58.7976 15.5612 58.7976 11.7447C58.7976 5.27312 53.5245 0 47.0529 0C42.1762 0 37.9817 2.97766 36.2025 7.21828L33.022 5.89078C33.2156 4.83984 33.0589 3.76125 32.5518 2.79328C31.9618 1.6225 30.9385 0.765156 29.694 0.359531C29.2054 0.193594 28.6892 0.119844 28.1821 0.119844C27.417 0.119844 26.6426 0.304219 25.942 0.654531C24.7712 1.25375 23.9139 2.26781 23.5082 3.52156C23.1026 4.77531 23.2132 6.09359 23.8125 7.26438C24.4117 8.43516 25.4257 9.30172 26.6795 9.70734C27.1681 9.86406 27.6751 9.94703 28.1821 9.94703C28.9565 9.94703 29.7217 9.75344 30.4223 9.40312C31.3534 8.92375 32.0909 8.17703 32.561 7.26438L35.7323 8.58266C35.4373 9.5875 35.2898 10.6477 35.2898 11.7447C35.2898 13.1275 35.5295 14.4458 35.9628 15.6719L25.0293 20.438C23.0934 16.6122 19.1201 13.9848 14.5476 13.9848C13.045 13.9848 11.5884 14.2706 10.2609 14.7961L7.56901 9.27406C8.46323 8.73938 9.15464 7.91891 9.56026 6.92328C10.0673 5.69719 10.0581 4.35125 9.55104 3.12516C8.79511 1.27219 6.98823 0.07375 4.97855 0.07375C4.32401 0.07375 3.6787 0.202812 3.07026 0.460938C0.535107 1.50266 -0.66333 4.425 0.396826 6.95094C0.903858 8.17703 1.86261 9.13578 3.0887 9.63359C3.68792 9.8825 4.33323 10.0116 4.97855 10.0116C5.40261 10.0116 5.82667 9.95625 6.24151 9.84562L8.95183 15.3953C5.29198 17.3958 2.7937 21.2769 2.7937 25.7203C2.7937 29.5184 4.6098 32.9109 7.42151 35.0589C7.45839 35.0958 7.50448 35.1327 7.55058 35.1603C9.50495 36.6169 11.9295 37.4742 14.5476 37.4742C17.1565 37.4742 19.581 36.6169 21.5354 35.1603C21.5907 35.1327 21.6368 35.0958 21.6829 35.0497C21.8396 34.9298 21.9871 34.81 22.1254 34.6809L25.7668 39.152C23.7664 41.2631 22.531 44.1117 22.531 47.2461C22.531 47.9928 22.6048 48.7211 22.7431 49.4402L18.2904 50.4173C17.5898 48.4906 15.746 47.1539 13.6442 47.1539C13.3215 47.1539 12.9989 47.1816 12.6762 47.2461C11.3856 47.5042 10.2701 48.2509 9.53261 49.3572C8.80433 50.4542 8.53698 51.7725 8.79511 53.0539C9.26526 55.3678 11.2934 57.0364 13.6442 57.0364C13.976 57.0364 14.2895 56.9995 14.6121 56.935C15.9028 56.6769 17.0275 55.9302 17.7557 54.8331C18.355 53.9389 18.6407 52.888 18.5762 51.8278L23.1026 50.8414C23.8401 53.1461 25.2782 55.1373 27.1496 56.5662C27.1496 56.5662 27.1496 56.5662 27.1589 56.5755C27.2142 56.6123 27.2695 56.6584 27.3248 56.6953C29.2792 58.1427 31.6853 58.9908 34.285 58.9908C36.8939 58.9908 39.3184 58.1334 41.2728 56.6769C41.3281 56.6492 41.3742 56.6123 41.4203 56.5662C44.2228 54.4183 46.0296 51.0442 46.0296 47.2369C46.0296 45.2364 45.5318 43.3466 44.6376 41.6964L50.3532 37.8153C51.2843 38.8662 52.6118 39.4747 54.05 39.4747C54.9995 39.4747 55.9306 39.1889 56.7326 38.6727C57.8389 37.9628 58.5948 36.8473 58.8714 35.5567C59.1571 34.2753 58.9082 32.957 58.18 31.86ZM37.5207 49.9011C38.4334 49.0438 38.9957 47.8269 38.9957 46.4809C38.9957 43.8905 36.8754 41.7702 34.285 41.7702C31.6853 41.7702 29.5742 43.8905 29.5742 46.4809C29.5742 47.8269 30.1365 49.0345 31.0492 49.9011C28.7721 50.6663 27.4446 52.2427 27.0667 54.575C25.776 53.312 24.8173 51.708 24.3379 49.9195C24.3379 49.8919 24.3287 49.8642 24.3287 49.8458C24.3195 49.7997 24.3103 49.7628 24.2918 49.7259C24.2826 49.7167 24.2826 49.7075 24.2826 49.6983C24.089 48.9147 23.9876 48.0942 23.9876 47.2461C23.9876 41.5673 28.6062 36.9395 34.2942 36.9395C35.6125 36.9395 36.8754 37.1884 38.037 37.6402L38.0462 37.6494H38.0554C40.1573 38.4791 41.9181 39.9817 43.0889 41.8808C43.0981 41.89 43.1073 41.8992 43.1073 41.9084C44.0476 43.4572 44.5915 45.2917 44.5915 47.2461C44.5915 50.1131 43.4115 52.7036 41.5125 54.5842C41.1437 52.2427 39.7978 50.6663 37.5207 49.9011ZM10.2332 16.3725C11.5515 15.7641 13.0081 15.423 14.5568 15.423C18.7975 15.423 22.4389 17.995 24.0245 21.6548V21.6733C24.0245 21.6825 24.0337 21.6825 24.0337 21.6917C24.5684 22.9363 24.8634 24.3006 24.8634 25.7295C24.8634 28.5966 23.6834 31.187 21.7843 33.0677C21.4156 30.7261 20.0789 29.1589 17.7926 28.3845C18.7053 27.5364 19.2676 26.3195 19.2676 24.9736C19.2676 22.3739 17.1473 20.2628 14.5568 20.2628C11.9571 20.2628 9.84605 22.3739 9.84605 24.9736C9.84605 26.3195 10.4084 27.5272 11.321 28.3937C9.04401 29.1589 7.71651 30.7261 7.33855 33.0584C5.43948 31.1963 4.25948 28.6058 4.25948 25.7295C4.25026 21.5903 6.71167 18.0134 10.2332 16.3725ZM47.0529 1.44734C52.7225 1.44734 57.3503 6.06594 57.3503 11.7539C57.3503 14.6117 56.1703 17.2114 54.2804 19.0828C53.9025 16.7413 52.5657 15.1833 50.2887 14.4181C51.2014 13.5608 51.7637 12.3439 51.7637 10.998C51.7637 8.39828 49.6434 6.28719 47.0529 6.28719C44.4532 6.28719 42.3421 8.39828 42.3421 10.998C42.3421 12.3439 42.9045 13.5516 43.8171 14.4181C41.5401 15.1833 40.2126 16.7505 39.8346 19.0828C38.8759 18.1517 38.1015 17.027 37.5668 15.7733V15.7641C37.0506 14.5288 36.7556 13.1828 36.7556 11.7539C36.7556 10.6016 36.9492 9.49531 37.2903 8.46281C37.3087 8.41672 37.3179 8.37062 37.3364 8.32453C38.7468 4.32359 42.5726 1.44734 47.0529 1.44734ZM23.1856 33.6853C25.1215 31.5927 26.3015 28.7994 26.3015 25.7295C26.3015 24.3375 26.0618 23.01 25.6193 21.7747C25.6193 21.7747 25.6193 21.7747 25.6193 21.7655L36.5435 16.9994C37.3456 18.6034 38.5164 20.0047 39.936 21.0741C39.9637 21.1109 40.0098 21.1386 40.0467 21.1755C40.821 21.747 41.66 22.2356 42.5634 22.6044L37.825 36.0453C36.7003 35.6858 35.511 35.5014 34.285 35.5014C31.464 35.5014 28.8735 36.5063 26.8362 38.1656L23.1856 33.6853Z" fill="#206D69"/>
</g>
<defs>
<clipPath id="clip0_83_57">
<rect width="59" height="59" fill="white"/>
</clipPath>
</defs>
</svg>
