<svg width="55" height="46" viewBox="0 0 55 46" fill="none" xmlns="http://www.w3.org/2000/svg">
<path d="M38.9096 40.1218C38.5426 39.9696 38.3035 39.6115 38.3036 39.2143V28.4107C38.1136 28.4166 37.9235 28.4014 37.7369 28.3655C36.9479 28.2119 36.2834 27.6834 35.9563 26.9493C35.8422 26.7045 35.5562 26.5922 35.3061 26.6939C35.0075 26.7998 34.6915 26.8475 34.375 26.8344V44.2969C34.3751 44.694 34.6144 45.0521 34.9813 45.204C35.3483 45.356 35.7706 45.272 36.0515 44.9912L36.6271 44.4157C37.0106 44.0323 37.6323 44.0323 38.0158 44.4157L38.5913 44.9912C38.8726 45.2724 39.2957 45.3562 39.6629 45.2035C40.0301 45.0507 40.269 44.6916 40.2679 44.2939V39.6209L39.9801 39.9086C39.6992 40.1897 39.2767 40.2738 38.9096 40.1218Z" fill="#206D69"/>
<path d="M43.9084 34.5913L46.1604 36.8433V26.8314C45.8436 26.8445 45.5273 26.7968 45.2284 26.6909C44.9722 26.5965 44.6864 26.7144 44.5713 26.962C44.244 27.6879 43.585 28.21 42.8035 28.3625C42.6398 28.3949 42.4734 28.4113 42.3065 28.4116C41.6827 28.4117 41.0822 28.1743 40.627 27.7477C40.5294 27.6572 40.4007 27.6076 40.2676 27.6092V36.8414L40.5544 36.5546L42.5186 34.5903C42.703 34.406 42.953 34.3026 43.2137 34.3027C43.4744 34.3029 43.7243 34.4067 43.9084 34.5913Z" fill="#206D69"/>
<path d="M40.2679 21.5357C43.5224 21.5357 46.1607 18.8974 46.1607 15.6429C46.1607 12.3883 43.5224 9.75 40.2679 9.75C37.0133 9.75 34.375 12.3883 34.375 15.6429C34.375 18.8974 37.0133 21.5357 40.2679 21.5357Z" fill="#206D69"/>
<path d="M34.6265 24.8484C35.845 24.4034 37.2013 24.9649 37.7488 26.1409C37.8161 26.2945 37.9551 26.4048 38.12 26.4356C38.2844 26.4698 38.4552 26.4217 38.5777 26.3069C39.5333 25.4284 41.0026 25.4284 41.9582 26.3069C42.0807 26.4219 42.2515 26.4699 42.4159 26.4356C42.5806 26.4048 42.7193 26.2945 42.7862 26.1409C43.3347 24.9655 44.6904 24.404 45.9094 24.8474C46.0664 24.9058 46.2419 24.8854 46.3813 24.7924C46.5207 24.6995 46.6071 24.5454 46.6136 24.378C46.6688 23.0795 47.7105 22.0404 49.009 21.9884C49.1762 21.9818 49.3301 21.8956 49.423 21.7564C49.5158 21.6173 49.5365 21.4421 49.4785 21.2852C49.0329 20.0664 49.5945 18.7095 50.771 18.162C50.9233 18.0922 51.033 17.9537 51.0658 17.7894C51.0987 17.6251 51.0508 17.455 50.937 17.3321C50.0582 16.3769 50.0582 14.9076 50.937 13.9525C51.0504 13.8297 51.0982 13.66 51.0656 13.496C51.0329 13.3321 50.9238 13.1936 50.772 13.1236C49.5947 12.5768 49.0326 11.2194 49.4785 10.0004C49.5366 9.84358 49.5159 9.66845 49.423 9.52945C49.3301 9.39045 49.1761 9.30443 49.009 9.29814C47.7121 9.24269 46.6734 8.20362 46.6185 6.90662C46.612 6.73922 46.5256 6.58509 46.3862 6.49216C46.2468 6.39923 46.0713 6.37878 45.9143 6.43716C44.6959 6.88162 43.3399 6.32029 42.7921 5.14466C42.7226 4.99237 42.5842 4.8827 42.42 4.84983C42.2559 4.81696 42.0859 4.86489 41.9631 4.97868C41.0077 5.85762 39.5381 5.85762 38.5826 4.97868C38.4601 4.86481 38.2904 4.81672 38.1264 4.8494C37.9624 4.88208 37.8241 4.99156 37.7547 5.14368C37.2058 6.31874 35.8504 6.88008 34.6314 6.43716C34.4744 6.37878 34.2989 6.39923 34.1595 6.49216C34.0201 6.58509 33.9338 6.73922 33.9272 6.90662C33.8724 8.20726 32.8277 9.24764 31.5269 9.29716C31.3597 9.30377 31.2059 9.39001 31.113 9.52914C31.0201 9.66827 30.9994 9.84346 31.0574 10.0004C31.503 11.2191 30.9414 12.5761 29.7649 13.1236C29.6126 13.1933 29.503 13.3319 29.4701 13.4962C29.4373 13.6605 29.4852 13.8305 29.5989 13.9535C30.4778 14.9086 30.4778 16.3779 29.5989 17.3331C29.4855 17.4559 29.4377 17.6256 29.4704 17.7895C29.503 17.9535 29.6121 18.092 29.7639 18.162C30.9412 18.7088 31.5034 20.0662 31.0574 21.2852C30.9994 21.442 31.02 21.6171 31.1129 21.7561C31.2059 21.8951 31.3598 21.9811 31.5269 21.9874C32.8276 22.0406 33.8697 23.0831 33.9223 24.3839C33.9288 24.5513 34.0152 24.7054 34.1546 24.7983C34.294 24.8913 34.4695 24.9117 34.6265 24.8533V24.8484ZM32.4108 15.6428C32.4108 11.3034 35.9286 7.78564 40.268 7.78564C44.6073 7.78564 48.1251 11.3034 48.1251 15.6428C48.1251 19.9822 44.6073 23.4999 40.268 23.4999C35.9306 23.4951 32.4157 19.9801 32.4108 15.6428Z" fill="#206D69"/>
<path d="M52.0536 0.910645H2.94643C1.31916 0.910645 0 2.22981 0 3.85707V39.2142C0 40.8415 1.31916 42.1606 2.94643 42.1606H32.4107V25.7657C32.1366 25.3808 31.98 24.9247 31.9599 24.4526C31.9479 24.1802 31.7295 23.9622 31.4571 23.9507C30.6608 23.92 29.9275 23.5096 29.485 22.847C29.0424 22.1844 28.9441 21.3499 29.2207 20.6026C29.3148 20.3467 29.1964 20.0614 28.9487 19.9475C28.2243 19.615 27.7033 18.9552 27.5478 18.1735C27.3923 17.3917 27.621 16.5828 28.1629 15.9983C28.3475 15.7976 28.3475 15.4889 28.1629 15.2882C27.621 14.7036 27.3923 13.8945 27.5478 13.1126C27.7033 12.3308 28.2243 11.6709 28.9487 11.3381C29.1956 11.2234 29.3135 10.9386 29.2197 10.683C28.9431 9.93569 29.0414 9.10114 29.484 8.43854C29.9266 7.77594 30.6598 7.36555 31.4561 7.33484C31.7285 7.32338 31.9469 7.1054 31.9589 6.83297C31.9887 6.03646 32.3986 5.30254 33.0612 4.85947C33.7237 4.4164 34.5586 4.31792 35.3061 4.59466C35.5623 4.69065 35.8491 4.57232 35.9631 4.32359C36.2957 3.59922 36.9554 3.07825 37.7372 2.92271C38.5189 2.76718 39.3278 2.99595 39.9123 3.53788C40.1127 3.72235 40.4211 3.72235 40.6214 3.53788C41.2061 2.99597 42.0151 2.76721 42.797 2.92273C43.5789 3.07825 44.2388 3.59919 44.5716 4.32359C44.6852 4.57217 44.972 4.69023 45.2277 4.59368C45.9752 4.31694 46.81 4.41542 47.4726 4.85849C48.1351 5.30156 48.545 6.03548 48.5748 6.83198C48.5868 7.10442 48.8052 7.3224 49.0777 7.33386C49.8739 7.36456 50.6072 7.77496 51.0498 8.43756C51.4923 9.10016 51.5906 9.93471 51.314 10.682C51.2199 10.9379 51.3383 11.2231 51.5861 11.3371C52.3104 11.6696 52.8314 12.3294 52.9869 13.1111C53.1425 13.8929 52.9137 14.7018 52.3718 15.2863C52.1872 15.487 52.1872 15.7957 52.3718 15.9964C52.9137 16.581 53.1424 17.3901 52.9869 18.1719C52.8314 18.9538 52.3105 19.6137 51.5861 19.9465C51.3391 20.0612 51.2212 20.346 51.315 20.6016C51.5916 21.3489 51.4933 22.1835 51.0507 22.8461C50.6082 23.5087 49.8749 23.919 49.0787 23.9498C48.8062 23.9612 48.5878 24.1792 48.5758 24.4516C48.5559 24.9241 48.3993 25.3806 48.125 25.7657V39.2142C48.1249 39.6114 47.8856 39.9694 47.5187 40.1214C47.1517 40.2734 46.7294 40.1894 46.4485 39.9086L43.2143 36.6744L42.2321 37.6565V42.1606H52.0536C53.6808 42.1606 55 40.8415 55 39.2142V3.85707C55 2.22981 53.6808 0.910645 52.0536 0.910645ZM28.4821 35.2856C28.4821 35.8281 28.0424 36.2678 27.5 36.2678H8.83929C6.12852 36.2645 3.93182 34.0678 3.92857 31.3571V11.7142C3.93182 9.00345 6.12852 6.80675 8.83929 6.8035H26.5179C27.0603 6.8035 27.5 7.24322 27.5 7.78565C27.5 8.32807 27.0603 8.76779 26.5179 8.76779H8.83929C7.21202 8.76779 5.89286 10.0869 5.89286 11.7142V31.3571C5.89286 32.9843 7.21202 34.3035 8.83929 34.3035H27.5C28.0424 34.3035 28.4821 34.7432 28.4821 35.2856ZM9.82143 16.6249H23.5714C24.1139 16.6249 24.5536 17.0647 24.5536 17.6071C24.5536 18.1495 24.1139 18.5892 23.5714 18.5892H9.82143C9.27901 18.5892 8.83929 18.1495 8.83929 17.6071C8.83929 17.0647 9.27901 16.6249 9.82143 16.6249ZM8.83929 13.6785C8.83929 13.1361 9.27901 12.6964 9.82143 12.6964H23.5714C24.1139 12.6964 24.5536 13.1361 24.5536 13.6785C24.5536 14.2209 24.1139 14.6606 23.5714 14.6606H9.82143C9.27901 14.6606 8.83929 14.2209 8.83929 13.6785ZM9.82143 20.5535H23.5714C24.1139 20.5535 24.5536 20.9932 24.5536 21.5356C24.5536 22.0781 24.1139 22.5178 23.5714 22.5178H9.82143C9.27901 22.5178 8.83929 22.0781 8.83929 21.5356C8.83929 20.9932 9.27901 20.5535 9.82143 20.5535ZM9.42857 30.4564C10.1134 30.2114 10.7464 29.8403 11.2946 29.3623C11.7962 28.87 12.0714 28.192 12.0548 27.4894C12.0251 27.0033 12.3561 26.5689 12.8326 26.4685C13.3091 26.368 13.7873 26.632 13.9563 27.0887C14.2531 27.9742 14.8485 28.729 15.6406 29.2239C15.8274 29.3603 16.0594 29.42 16.2888 29.3908C16.4349 29.2938 16.5189 29.1269 16.5098 28.9518C16.4755 28.465 16.8038 28.0269 17.2806 27.9231C17.7574 27.8193 18.2381 28.0814 18.4093 28.5383C18.5075 28.7986 18.7422 29.1679 19.6586 29.379L20.4178 29.5588C21.7376 29.9543 23.11 30.1464 24.4878 30.1284C25.0288 30.0894 25.4991 30.4963 25.5382 31.0374C25.5772 31.5785 25.1703 32.0487 24.6292 32.0878C23.0503 32.1216 21.4756 31.913 19.9601 31.469L19.2176 31.2932C18.705 31.1844 18.2153 30.9866 17.7709 30.7089C17.5494 30.9368 17.2815 31.1144 16.9852 31.2294C16.2123 31.4897 15.3627 31.3811 14.6801 30.9348C14.1907 30.6539 13.7499 30.2957 13.3748 29.874C13.1824 30.1955 12.9515 30.4923 12.6873 30.758C11.9673 31.4126 11.1276 31.9218 10.2143 32.2577C10.0905 32.3121 9.95664 32.3398 9.82143 32.3392C9.35592 32.3397 8.95398 32.0134 8.8589 31.5577C8.76381 31.102 9.0017 30.6421 9.42857 30.4564Z" fill="#206D69"/>
</svg>
