<svg width="57" height="57" viewBox="0 0 57 57" fill="none" xmlns="http://www.w3.org/2000/svg">
<g clip-path="url(#clip0_83_71)">
<path d="M15.4419 15.252H14.7272L13.3916 21.9316H16.7775L15.4419 15.252Z" fill="#206D69"/>
<path d="M42.458 28.6113C43.1791 30.5483 44.1382 32.1163 45.1996 33.4504C46.261 32.1163 47.3314 30.5482 48.0525 28.6113H42.458Z" fill="#206D69"/>
<path d="M51.9906 10.1309H31.2521L35.5763 44.8295C35.6528 46.2487 35.2648 47.5849 34.3386 48.6309L27.0156 57H51.9906C54.7531 57 57.0004 54.7527 57.0004 51.9902V15.252C57.0004 12.4895 54.7531 10.1309 51.9906 10.1309ZM51.9906 28.6113H51.5447C50.5945 31.6598 49.0877 34.0453 47.5217 35.9258C48.7484 37.0473 50.0602 37.9673 51.3644 38.9978C52.0836 39.5735 52.2011 40.6236 51.6237 41.3445C51.049 42.0642 49.9948 42.1809 49.277 41.6038C47.8599 40.4853 46.5298 39.549 45.1996 38.3284C43.8695 39.549 42.6507 40.4853 41.2336 41.6038C40.5158 42.1809 39.4616 42.0642 38.8869 41.3445C38.3095 40.6236 38.427 39.5735 39.1462 38.9978C40.4504 37.9673 41.6508 37.0473 42.8775 35.9258C41.3116 34.0454 39.916 31.6599 38.9659 28.6113H38.5199C37.5969 28.6113 36.85 27.8644 36.85 26.9414C36.85 26.0184 37.5969 25.2715 38.5199 25.2715H43.5297V23.6016C43.5297 22.6785 44.2766 21.9316 45.1996 21.9316C46.1226 21.9316 46.8695 22.6785 46.8695 23.6016V25.2715H51.9906C52.9137 25.2715 53.6606 26.0184 53.6606 26.9414C53.6606 27.8644 52.9137 28.6113 51.9906 28.6113Z" fill="#206D69"/>
<path d="M27.1823 4.38844C26.8708 1.88679 24.7329 0 22.2117 0H5.00977C2.24727 0 0 2.24727 0 5.00977V41.9707C0 44.7332 2.24727 46.9805 5.00977 46.9805C14.9926 46.9805 22.174 46.9805 31.3445 46.9805C31.8317 46.4236 32.2401 46.0749 32.2573 45.3481C32.2616 45.1658 27.2049 4.56924 27.1823 4.38844ZM20.4781 31.9186C19.5926 32.1008 18.6957 31.5259 18.5131 30.609L17.4458 25.2715H12.7242L11.6569 30.609C11.4776 31.5124 10.6067 32.106 9.69189 31.9186C8.78846 31.7375 8.20132 30.8586 8.38234 29.9535L11.7221 13.2543C11.8786 12.4748 12.5636 11.9121 13.3594 11.9121H16.8105C17.6063 11.9121 18.2913 12.4748 18.4478 13.2543L21.7877 29.9535C21.9687 30.8586 21.3817 31.7375 20.4781 31.9186Z" fill="#206D69"/>
<path d="M19.5117 50.3203L19.7983 52.6116C19.9893 54.146 21.0089 55.7107 22.6859 56.492C25.8507 53.0081 23.936 55.1158 28.2923 50.3203H19.5117Z" fill="#206D69"/>
</g>
<defs>
<clipPath id="clip0_83_71">
<rect width="57" height="57" fill="white"/>
</clipPath>
</defs>
</svg>
