<svg width="183" height="30" viewBox="0 0 183 30" fill="none" xmlns="http://www.w3.org/2000/svg">
<g clip-path="url(#clip0_15_8045)">
<path d="M14.8244 20.0187C17.545 20.0187 19.7659 22.2617 19.7659 25.0093C19.7659 27.757 17.545 30 14.8244 30C12.1038 30 9.88295 27.757 9.88295 25.0093C9.88295 22.2056 12.0483 20.0187 14.8244 20.0187ZM14.8244 0C17.545 0 19.7659 2.24299 19.7659 4.99066C19.7659 7.73834 17.545 9.98132 14.8244 9.98132C12.1038 9.98132 9.88295 7.73834 9.88295 4.99066C9.88295 2.24299 12.0483 0 14.8244 0ZM24.7073 9.98132C27.4279 9.98132 29.6488 12.2243 29.6488 14.972C29.6488 17.7196 27.4279 19.9626 24.7073 19.9626C22.2089 19.9626 20.1546 18.1121 19.8214 15.6448C19.8214 15.4766 19.7104 15.3084 19.5438 15.1963C19.3772 15.0841 19.2107 15.0841 19.0441 15.1402L14.8244 16.6542L7.82863 19.1776C6.82924 19.514 5.99641 19.9066 4.94147 19.9066C2.22088 19.9066 0 17.6636 0 14.9159C0 12.1682 2.22088 9.92523 4.94147 9.92523C7.43998 9.92523 9.4943 11.7757 9.82742 14.243C9.82742 14.4112 9.93844 14.5795 10.105 14.6916C10.2716 14.8037 10.4382 14.8037 10.6047 14.7477L14.8244 13.2336L21.8202 10.7103C22.7641 10.3738 23.5969 9.98132 24.7073 9.98132Z" fill="url(#paint0_linear_15_8045)"/>
<path d="M55.0777 8.74768V21.2523H51.8576V8.74768H55.0777ZM74.5107 8.74768V21.2523H71.2904V8.74768H74.5107ZM87.003 16.5421H78.8412V13.514H87.003V16.5421ZM74.8995 5.32712C74.8995 5.88788 74.7329 6.39252 74.3441 6.729C73.9553 7.12152 73.5114 7.28973 72.956 7.28973C72.4006 7.28973 71.901 7.12152 71.5678 6.729C71.179 6.33648 71.0125 5.88788 71.0125 5.32712C71.0125 4.76637 71.179 4.31777 71.5678 3.92524C71.9567 3.53272 72.4006 3.3645 72.956 3.3645C73.5114 3.3645 74.011 3.53272 74.3441 3.92524C74.6773 4.31777 74.8995 4.76637 74.8995 5.32712ZM70.0688 21.2523H66.1266L62.0179 15.8692L61.1851 16.6542V21.2523H57.9648V3.8131H61.1851V13.0093L65.6827 8.74768H69.7357L64.1837 13.8505L70.0688 21.2523ZM55.4665 5.32712C55.4665 5.88788 55.2999 6.39252 54.9111 6.729C54.5229 7.12152 54.0784 7.28973 53.523 7.28973C52.968 7.28973 52.4683 7.12152 52.1352 6.729C51.7466 6.33648 51.5799 5.88788 51.5799 5.32712C51.5799 4.76637 51.7466 4.31777 52.1352 3.92524C52.5239 3.53272 52.968 3.3645 53.523 3.3645C54.0784 3.3645 54.578 3.53272 54.9111 3.92524C55.2999 4.31777 55.4665 4.76637 55.4665 5.32712ZM136.751 14.972C136.751 14.0187 136.418 13.1215 135.752 12.3925C135.085 11.6636 134.253 11.3271 133.253 11.3271C132.254 11.3271 131.421 11.6636 130.755 12.3925C130.144 13.1215 129.811 13.9626 129.811 14.972C129.811 15.9813 130.144 16.8224 130.81 17.5514C131.476 18.2804 132.309 18.6168 133.308 18.6168C134.308 18.6168 135.141 18.2804 135.807 17.5514C136.418 16.8224 136.751 15.9813 136.751 14.972ZM136.696 10.2056V8.69159H139.749V21.1963H136.696V19.7383C135.641 20.9159 134.308 21.4766 132.753 21.4766C130.977 21.4766 129.478 20.8598 128.312 19.5701C127.146 18.3365 126.59 16.7103 126.59 14.8598C126.59 12.9533 127.201 11.4393 128.367 10.2056C129.533 8.97199 130.977 8.35516 132.753 8.35516C134.308 8.41125 135.585 9.02807 136.696 10.2056ZM126.923 21.2523H122.981L118.873 15.8692L118.04 16.6542V21.2523H114.819V3.8131H118.04V13.0093L122.537 8.74768H126.59L121.038 13.8505L126.923 21.2523ZM108.934 14.972C108.934 14.0187 108.601 13.1215 107.935 12.3925C107.269 11.6636 106.436 11.3271 105.437 11.3271C104.437 11.3271 103.604 11.6636 102.938 12.3925C102.327 13.1215 101.994 13.9626 101.994 14.972C101.994 15.9813 102.327 16.8224 102.993 17.5514C103.66 18.2804 104.492 18.6168 105.492 18.6168C106.491 18.6168 107.324 18.2804 107.991 17.5514C108.601 16.8224 108.934 15.9813 108.934 14.972ZM108.879 10.2056V8.69159H111.932V21.1963H108.879V19.7383C107.824 20.9159 106.491 21.4766 104.937 21.4766C103.16 21.4766 101.661 20.8598 100.495 19.5701C99.3292 18.3365 98.7738 16.7103 98.7738 14.8598C98.7738 12.9533 99.3844 11.4393 100.55 10.2056C101.717 8.97199 103.16 8.35516 104.937 8.35516C106.491 8.41125 107.824 9.02807 108.879 10.2056ZM91.3891 21.2523V7.57013H86.559V4.2617H99.5509V7.57013H94.7208V21.2523H91.3891ZM41.8636 21.2523V7.57013H37.0887V4.2617H50.0809V7.57013H45.306V21.2523H41.8636Z" fill="white"/>
<path d="M182.612 4.26165H155.073C151.575 4.26165 148.744 7.12146 148.744 10.6542V25.7383H176.283C179.781 25.7383 182.612 22.8785 182.612 19.3458V4.26165Z" fill="url(#paint1_linear_15_8045)"/>
<path fill-rule="evenodd" clip-rule="evenodd" d="M175.117 10.5981H177.505L174.34 16.3738V19.4019H172.341V16.3738L169.231 10.5981H171.619L173.396 14.243L175.117 10.5981ZM166.733 15.9252L165.789 13.1215L164.79 15.9252H166.733ZM169.953 19.4019H167.843L167.233 17.6075H164.179L163.569 19.4019H161.458L164.845 10.5981H166.622L169.953 19.4019ZM157.017 14.6916H158.405C158.794 14.6916 159.127 14.5795 159.349 14.3552C159.571 14.1309 159.682 13.8505 159.682 13.514C159.682 13.1776 159.571 12.8972 159.349 12.6729C159.127 12.4486 158.849 12.3365 158.46 12.3365H157.017V14.6916ZM155.018 10.5981H158.46C159.571 10.5981 160.403 10.8785 160.903 11.4393C161.458 12 161.736 12.729 161.736 13.5701C161.736 14.4113 161.458 15.0841 160.903 15.6449C160.348 16.2056 159.46 16.486 158.294 16.486H157.017V19.4019H155.018V10.5981Z" fill="white"/>
</g>
<defs>
<linearGradient id="paint0_linear_15_8045" x1="-0.0230417" y1="15.0287" x2="29.6308" y2="15.0287" gradientUnits="userSpaceOnUse">
<stop stop-color="#72B1BA"/>
<stop offset="1" stop-color="#8320AB"/>
</linearGradient>
<linearGradient id="paint1_linear_15_8045" x1="148.717" y1="15.0205" x2="182.592" y2="15.0205" gradientUnits="userSpaceOnUse">
<stop stop-color="#72B1BA"/>
<stop offset="1" stop-color="#8320AB"/>
</linearGradient>
<clipPath id="clip0_15_8045">
<rect width="183" height="30" fill="white"/>
</clipPath>
</defs>
</svg>
