<svg width="119" height="51" viewBox="0 0 119 51" fill="none" xmlns="http://www.w3.org/2000/svg">
<g clip-path="url(#clip0_5_3875)">
<path fill-rule="evenodd" clip-rule="evenodd" d="M101.662 16.2437C102.014 16.5798 102.443 16.7479 102.947 16.7479C103.45 16.7479 103.878 16.5798 104.232 16.2437C104.581 15.9076 104.759 15.4555 104.759 14.8874C104.759 14.3192 104.585 13.8672 104.232 13.5311C103.878 13.195 103.45 13.027 102.947 13.027C102.443 13.027 102.014 13.195 101.662 13.5311C101.309 13.8672 101.134 14.3192 101.134 14.8874C101.134 15.4555 101.309 15.9076 101.662 16.2437ZM101.558 35.4761H104.37V19.6165H101.558V35.4761ZM54.8384 31.5112C55.0486 30.635 55.1557 29.6908 55.1557 28.6746V14.3433H52.2209V28.4025C52.2209 30.2149 51.8877 31.4912 51.2214 32.2314C50.5591 32.9715 49.5001 33.3436 48.0485 33.3436C47.0372 33.3436 46.1964 33.1756 45.5222 32.8394C44.848 32.5034 44.3007 32.1834 43.8763 31.8793L42.7261 34.2278C42.9284 34.4118 43.2021 34.5999 43.5431 34.792C43.8882 34.984 44.2888 35.168 44.7528 35.34C45.2168 35.5121 45.7364 35.6561 46.3115 35.7682C46.8865 35.8801 47.5171 35.9362 48.2032 35.9362C49.5517 35.9362 50.6781 35.7482 51.5744 35.372C52.4707 34.996 53.1846 34.4758 53.72 33.8157C54.2515 33.1556 54.6282 32.3874 54.8384 31.5112ZM69.5009 35.54C70.5598 35.3559 71.4086 35.184 72.055 35.0199L72.0589 35.0239V19.6204H69.247V33.0114C69.1439 33.0555 68.9774 33.0875 68.7473 33.1195C68.5527 33.1465 68.3383 33.1708 68.1063 33.197L67.9779 33.2115C67.6923 33.2435 67.3909 33.2675 67.0697 33.2875C66.7484 33.3116 66.4351 33.3195 66.1337 33.3195C64.7019 33.3195 63.6866 32.8994 63.0799 32.0672C62.4731 31.2351 62.1717 29.8507 62.1717 27.9183V19.6204H59.3597V28.5264C59.3597 29.6067 59.4708 30.5869 59.6929 31.4711C59.911 32.3593 60.2758 33.1275 60.7795 33.7757C61.2832 34.4237 61.9456 34.9279 62.7744 35.284C63.5994 35.6361 64.6187 35.816 65.8283 35.816C67.2164 35.816 68.442 35.7241 69.5009 35.54ZM76.2035 20.0727C76.8499 19.9086 77.6987 19.7366 78.7578 19.5525C79.8163 19.3685 81.0421 19.2765 82.4304 19.2765C83.4377 19.2765 84.2862 19.4125 84.9683 19.6886C85.6543 19.9646 86.2299 20.3647 86.6934 20.8928C86.8327 20.7928 87.0543 20.6488 87.36 20.4647C87.661 20.2807 88.0343 20.1047 88.4784 19.9326C88.9226 19.7606 89.4141 19.6086 89.9617 19.4765C90.5053 19.3445 91.0879 19.2805 91.7148 19.2805C92.9242 19.2805 93.912 19.4605 94.6773 19.8126C95.4427 20.1687 96.0416 20.6728 96.4779 21.3209C96.9103 21.9731 97.2036 22.7452 97.3544 23.6375C97.5053 24.5337 97.5808 25.5099 97.5808 26.5661V35.4721H94.7683V27.1783C94.7683 26.2421 94.7248 25.4379 94.6338 24.7697C94.5428 24.0976 94.3717 23.5414 94.1181 23.0933C93.8646 22.6453 93.5231 22.3171 93.0907 22.1011C92.6582 21.889 92.099 21.7811 91.413 21.7811C90.4657 21.7811 89.684 21.9091 89.0696 22.1611C88.4543 22.4172 88.0382 22.6453 87.8158 22.8493C87.9783 23.3774 88.0973 23.9575 88.1806 24.5897C88.2599 25.2218 88.2996 25.882 88.2996 26.5701V35.4761H85.4879V27.1823C85.4879 26.2461 85.4366 25.4419 85.337 24.7737C85.2343 24.1016 85.0593 23.5454 84.8097 23.0974C84.5561 22.6493 84.2147 22.3211 83.7822 22.1051C83.3506 21.893 82.7991 21.7851 82.1364 21.7851C81.8549 21.7851 81.55 21.797 81.2288 21.817C80.9076 21.837 80.598 21.865 80.304 21.893C80.0108 21.9251 79.7448 21.9571 79.5029 22.0011C79.261 22.0411 79.0984 22.0731 79.0191 22.0931V35.4842H76.2074V20.0807L76.2035 20.0727ZM112.243 33.4315C113.391 33.4312 114.238 33.2791 114.793 32.9754C115.348 32.6713 115.626 32.1833 115.626 31.5111C115.626 30.8389 115.352 30.2708 114.809 29.8627C114.266 29.4546 113.369 28.9985 112.12 28.4904C111.513 28.2463 110.934 27.9983 110.383 27.7422C109.828 27.4862 109.348 27.1901 108.947 26.842C108.543 26.498 108.222 26.0779 107.98 25.5938C107.738 25.1057 107.619 24.5055 107.619 23.7933C107.619 22.389 108.134 21.2768 109.161 20.4526C110.189 19.6284 111.589 19.2163 113.365 19.2163C113.809 19.2163 114.254 19.2403 114.694 19.2923C115.138 19.3443 115.551 19.4043 115.936 19.4764C116.316 19.5484 116.657 19.6244 116.947 19.7044C117.24 19.7845 117.466 19.8564 117.629 19.9164L117.113 22.357C116.811 22.193 116.336 22.0249 115.694 21.8529C115.047 21.6809 114.273 21.5929 113.365 21.5929C112.58 21.5929 111.893 21.7488 111.311 22.065C110.724 22.381 110.434 22.8731 110.434 23.5453C110.434 23.8893 110.498 24.1974 110.633 24.4615C110.763 24.7255 110.966 24.9656 111.235 25.1777C111.509 25.3897 111.846 25.5898 112.247 25.7738C112.651 25.9578 113.136 26.1499 113.699 26.3539C114.444 26.638 115.11 26.918 115.694 27.1941C116.276 27.4702 116.776 27.7902 117.189 28.1544C117.601 28.5224 117.918 28.9625 118.141 29.4826C118.362 30.0028 118.473 30.6389 118.473 31.387C118.473 32.8514 117.934 33.9596 116.856 34.7119C115.777 35.464 114.242 35.8401 112.243 35.8401C110.85 35.8401 109.764 35.724 108.979 35.488C108.194 35.2559 107.658 35.0759 107.377 34.9559L107.892 32.5153C108.213 32.6353 108.729 32.8194 109.435 33.0635C110.14 33.3072 111.074 33.4312 112.243 33.4315ZM82.6264 43.0604C82.6264 42.6003 82.5347 42.2358 82.3511 41.9668C82.173 41.6979 81.8891 41.5635 81.4979 41.5635C81.3206 41.5635 81.1518 41.5903 80.9916 41.6442C80.8376 41.6979 80.7131 41.7577 80.6182 41.8235V44.5214C80.6952 44.5394 80.7932 44.5573 80.9114 44.5753C81.0359 44.5872 81.1837 44.5931 81.3556 44.5931C81.753 44.5931 82.0633 44.4587 82.2889 44.1899C82.5137 43.9149 82.6264 43.5385 82.6264 43.0604ZM83.7286 43.0783C83.7286 43.4548 83.6718 43.7954 83.559 44.1002C83.4524 44.399 83.2961 44.6559 83.0884 44.8711C82.887 45.0862 82.6412 45.2505 82.3511 45.364C82.061 45.4776 81.732 45.5344 81.3649 45.5344C81.0094 45.5344 80.6688 45.5075 80.3429 45.4537C80.0232 45.3999 79.7564 45.3402 79.5433 45.2744V38.6413L80.6182 38.4621V40.8912C80.7427 40.8255 80.8936 40.7657 81.0717 40.7119C81.2552 40.6581 81.4567 40.6312 81.676 40.6312C82.0011 40.6312 82.292 40.691 82.5463 40.8105C82.8069 40.924 83.0231 41.0884 83.195 41.3035C83.3669 41.5186 83.4968 41.7786 83.5862 42.0834C83.6811 42.3822 83.7286 42.7138 83.7286 43.0783ZM88.5352 40.7299C88.0553 42.5106 87.4984 44.1241 86.8646 45.5702C86.7463 45.8391 86.6242 46.0692 86.4998 46.2604C86.3761 46.4517 86.2369 46.61 86.0829 46.7355C85.9281 46.861 85.757 46.9506 85.5672 47.0044C85.3774 47.0641 85.1581 47.094 84.91 47.094C84.7436 47.094 84.5779 47.0761 84.4122 47.0403C84.252 47.0044 84.1307 46.9656 84.0474 46.9237L84.2434 46.0543C84.4566 46.1379 84.6666 46.1797 84.8742 46.1797C85.1527 46.1797 85.3689 46.111 85.5229 45.9736C85.6823 45.8421 85.8216 45.636 85.9406 45.3551C85.603 44.6977 85.2771 43.9807 84.9629 43.2038C84.6549 42.427 84.3796 41.6023 84.1369 40.7299H85.2826C85.3417 40.9809 85.4132 41.2527 85.4964 41.5455C85.5851 41.8384 85.68 42.1371 85.7803 42.4419C85.8814 42.7407 85.988 43.0394 86.1 43.3382C86.2128 43.6371 86.3256 43.9149 86.4376 44.1719C86.6273 43.6401 86.8054 43.0753 86.9711 42.4777C87.1368 41.8742 87.2877 41.2916 87.4246 40.7299H88.5352ZM91.9466 42.3792C92.3611 43.4369 92.7904 44.4498 93.2346 45.4179H94.3102C94.7543 44.4498 95.1806 43.4369 95.5897 42.3792C95.998 41.3215 96.383 40.2637 96.7447 39.2061H95.5453C95.4092 39.6243 95.2669 40.0516 95.1183 40.4878C94.9706 40.924 94.8197 41.3543 94.6657 41.7786C94.5171 42.2029 94.3693 42.6122 94.2216 43.0067C94.073 43.395 93.9307 43.7536 93.7946 44.0823C93.6522 43.7536 93.5075 43.3921 93.359 42.9976C93.2112 42.6033 93.0634 42.1969 92.9149 41.7786C92.7671 41.3543 92.6186 40.924 92.4708 40.4878C92.323 40.0516 92.1776 39.6243 92.0352 39.2061H90.8001C91.1556 40.2637 91.5374 41.3215 91.9466 42.3792ZM97.5411 39.2061H98.6603V45.4179H97.5411V39.2061ZM102.508 44.3691C102.324 44.5065 102.031 44.5753 101.628 44.5753C101.243 44.5753 100.914 44.5305 100.642 44.4408C100.369 44.3512 100.153 44.2615 99.9934 44.1719L99.6644 45.0951C99.736 45.137 99.8301 45.1847 99.9491 45.2386C100.067 45.2864 100.207 45.3341 100.367 45.382C100.532 45.4298 100.719 45.4686 100.926 45.4985C101.14 45.5344 101.373 45.5523 101.628 45.5523C102.387 45.5523 102.961 45.3999 103.352 45.0951C103.749 44.7844 103.948 44.3482 103.948 43.7865C103.948 43.4937 103.906 43.2456 103.823 43.0424C103.74 42.8333 103.619 42.654 103.458 42.5047C103.304 42.3493 103.112 42.2178 102.881 42.1102C102.656 41.9967 102.398 41.8861 102.108 41.7786C101.943 41.7189 101.789 41.6561 101.646 41.5903C101.51 41.5246 101.388 41.453 101.281 41.3752C101.181 41.2975 101.101 41.2109 101.042 41.1153C100.988 41.0137 100.962 40.8942 100.962 40.7568C100.962 40.5297 101.045 40.3534 101.211 40.2279C101.383 40.1024 101.619 40.0396 101.922 40.0396C102.176 40.0396 102.422 40.0695 102.659 40.1293C102.902 40.189 103.124 40.2757 103.325 40.3893L103.672 39.4749C103.5 39.3733 103.263 39.2808 102.961 39.1971C102.665 39.1074 102.324 39.0626 101.939 39.0626C101.276 39.0626 100.752 39.2239 100.367 39.5467C99.9818 39.8634 99.7889 40.3026 99.7889 40.8643C99.7889 41.1332 99.8332 41.3633 99.9219 41.5545C100.017 41.7457 100.138 41.9101 100.287 42.0475C100.441 42.1849 100.616 42.3014 100.811 42.3971C101.012 42.4867 101.219 42.5704 101.433 42.6481C101.646 42.7198 101.835 42.7945 102.002 42.8722C102.167 42.9439 102.307 43.0245 102.419 43.1141C102.538 43.1979 102.626 43.2934 102.685 43.401C102.751 43.5086 102.783 43.6371 102.783 43.7865C102.783 44.0374 102.692 44.2317 102.508 44.3691ZM106.276 39.2061C106.406 39.4331 106.551 39.711 106.711 40.0396C106.871 40.3683 107.034 40.7149 107.2 41.0794C107.366 41.438 107.529 41.8055 107.689 42.1819C107.854 42.5524 108.005 42.8961 108.141 43.2128C108.278 42.8961 108.426 42.5524 108.586 42.1819C108.746 41.8055 108.909 41.438 109.075 41.0794C109.24 40.7149 109.404 40.3683 109.563 40.0396C109.723 39.711 109.868 39.4331 109.999 39.2061H111.011C111.065 39.6602 111.116 40.1442 111.163 40.6581C111.211 41.1661 111.252 41.689 111.288 42.2267C111.329 42.7586 111.365 43.2964 111.394 43.8402C111.429 44.3781 111.459 44.9039 111.483 45.4179H110.381C110.357 44.6948 110.328 43.9508 110.292 43.1859C110.262 42.421 110.215 41.68 110.15 40.9629C110.084 41.1004 110.007 41.2646 109.919 41.4559C109.83 41.6471 109.735 41.8563 109.635 42.0834C109.534 42.3045 109.43 42.5345 109.324 42.7735C109.223 43.0126 109.122 43.2456 109.021 43.4727C108.926 43.6938 108.838 43.903 108.755 44.1002C108.672 44.2914 108.601 44.4558 108.541 44.5931H107.707C107.647 44.4558 107.576 44.2884 107.493 44.0912C107.41 43.894 107.319 43.6849 107.217 43.4638C107.123 43.2367 107.022 43.0036 106.916 42.7646C106.815 42.5256 106.714 42.2955 106.613 42.0744C106.513 41.8533 106.418 41.6471 106.329 41.4559C106.241 41.2587 106.164 41.0944 106.098 40.9629C106.033 41.68 105.982 42.421 105.947 43.1859C105.917 43.9508 105.891 44.6948 105.867 45.4179H104.765C104.789 44.9039 104.816 44.372 104.845 43.8223C104.881 43.2726 104.916 42.7287 104.952 42.1909C104.993 41.6472 105.037 41.1213 105.085 40.6133C105.132 40.1054 105.183 39.6363 105.236 39.2061H106.276ZM116.617 44.6918C116.706 44.9308 116.791 45.1728 116.874 45.4179H118.083C117.852 44.7545 117.63 44.142 117.416 43.5803C117.209 43.0186 117.004 42.4867 116.804 41.9848C116.608 41.4828 116.412 41.0047 116.217 40.5506C116.021 40.0964 115.82 39.6483 115.613 39.2061H114.555C114.348 39.6483 114.147 40.0964 113.951 40.5506C113.755 41.0047 113.557 41.4828 113.356 41.9848C113.16 42.4867 112.959 43.0186 112.751 43.5803C112.544 44.142 112.325 44.7545 112.094 45.4179H113.258L113.507 44.7007C113.595 44.4558 113.682 44.2077 113.764 43.9567H116.359C116.442 44.2077 116.527 44.4528 116.617 44.6918ZM114.591 41.5635C114.768 41.1093 114.925 40.7239 115.061 40.4071C115.192 40.7119 115.346 41.0944 115.523 41.5545C115.701 42.0147 115.885 42.5106 116.075 43.0424H114.049C114.238 42.5106 114.419 42.0176 114.591 41.5635Z" fill="white"/>
<path d="M25.8228 22.2961C27.5441 23.3203 28.8767 24.5046 29.7373 25.8369L29.7294 25.8449C30.6297 27.2372 31.0739 28.8336 31.058 30.59C31.0104 34.819 27.1752 37.7476 23.4631 40.5762L23.4544 40.5828C20.7999 42.6092 18.056 44.7039 16.7802 47.1857L14.7933 50.4305V45.0052L14.7774 41.2004V37.9516C14.7576 36.9714 14.7179 36.0192 14.6505 35.087C14.6382 34.8958 14.6183 34.7109 14.5983 34.5254C14.5861 34.412 14.5738 34.2982 14.5633 34.1828C14.5117 33.5706 14.4562 32.9545 14.3808 32.3583C14.3502 32.1112 14.3098 31.87 14.2692 31.6277C14.252 31.5249 14.2347 31.4219 14.2182 31.3182C14.1389 30.79 14.0596 30.2619 13.9604 29.7458C13.9149 29.5002 13.8586 29.26 13.8024 29.0204C13.7753 28.9048 13.7482 28.7894 13.7225 28.6735C13.7064 28.601 13.6904 28.5284 13.6745 28.4557L13.6742 28.4545C13.5837 28.0426 13.4931 27.6302 13.3853 27.2292C13.3194 26.9767 13.2438 26.73 13.1679 26.4823C13.1345 26.373 13.1009 26.2633 13.0681 26.153C13.0503 26.0929 13.0326 26.0328 13.0149 25.9729C12.8984 25.5769 12.782 25.1818 12.6477 24.7927C12.5476 24.4995 12.4369 24.209 12.3265 23.919C12.3013 23.8528 12.2761 23.7866 12.251 23.7204L12.215 23.6246C12.0643 23.2239 11.9127 22.8206 11.7473 22.4242C11.6338 22.156 11.5113 21.8901 11.3884 21.6231C11.3482 21.5357 11.3074 21.4474 11.2674 21.3597C11.077 20.9397 10.8867 20.5197 10.6766 20.1036C10.5287 19.802 10.3667 19.5033 10.2049 19.205L10.1173 19.0434C9.9666 18.7673 9.8119 18.4913 9.65728 18.2152L8.5785 16.4068C8.55664 16.3727 8.53588 16.3388 8.51503 16.3048C8.49419 16.2707 8.47342 16.2368 8.45157 16.2027C8.36298 16.0656 8.27213 15.9285 8.17577 15.7831C8.14279 15.7333 8.10919 15.6827 8.07481 15.6306L8.01134 15.5346V15.5266C7.01587 13.9582 6.75808 13.23 6.75808 11.7218C6.76685 13.8004 8.98987 15.1007 14.595 17.5191C14.6287 17.5351 14.6634 17.55 14.6981 17.565C14.7328 17.58 14.7675 17.5951 14.8013 17.6111L16.9072 18.4913L17.2998 18.6473C17.9899 18.9194 18.6919 19.1914 19.378 19.4515C19.569 19.5248 19.7607 19.5983 19.9529 19.6719C20.4832 19.8749 21.0166 20.0792 21.5435 20.2876C22.2613 20.5718 22.9673 20.8598 23.6375 21.1558C23.6931 21.1798 23.7476 21.2049 23.8021 21.2299C23.8567 21.2548 23.9112 21.2799 23.9668 21.3039L25.8228 22.2961Z" fill="url(#paint0_linear_5_3875)"/>
<path d="M3.04988 20.0356C4.48956 18.5713 6.42895 17.3231 8.57858 16.4068L9.65728 18.2152C9.81198 18.4913 9.96668 18.7674 10.1173 19.0434C10.3077 19.3955 10.5021 19.7476 10.6766 20.1037C10.8868 20.5197 11.0771 20.9397 11.2674 21.3597C11.4301 21.7159 11.5967 22.0681 11.7474 22.4242C11.9259 22.8523 12.0885 23.2884 12.2511 23.7205C12.386 24.0766 12.5248 24.4326 12.6477 24.7928C12.8024 25.2408 12.9333 25.6969 13.0681 26.153C13.1752 26.5131 13.2902 26.8652 13.3854 27.2293C13.5123 27.7014 13.6154 28.1895 13.7225 28.6736C13.8018 29.0297 13.8931 29.3817 13.9605 29.7459C14.0596 30.262 14.1389 30.7901 14.2182 31.3182C14.2738 31.6663 14.3372 32.0064 14.3809 32.3584C14.4562 32.9546 14.5117 33.5707 14.5633 34.1829C14.591 34.4869 14.6307 34.7789 14.6505 35.0871C14.718 36.0193 14.7576 36.9715 14.7775 37.9517V38.1558V38.7719V39.7641V41.2005L14.7933 45.0053C14.6188 43.4209 12.1718 41.6846 9.57802 39.8481C5.31053 36.8234 0 33.0586 0 26.8532C0 24.4206 1.05497 22.0601 3.04988 20.0356Z" fill="url(#paint1_linear_5_3875)"/>
<path d="M26.6757 20.4075C26.4854 21.0276 26.1998 21.6558 25.823 22.2959L23.9669 21.3037C23.8558 21.2557 23.7487 21.2037 23.6377 21.1557C22.9675 20.8596 22.2615 20.5715 21.5437 20.2875C20.8258 20.0034 20.0961 19.7274 19.3782 19.4512C18.692 19.1912 17.9901 18.9192 17.3 18.6471L16.9073 18.4911L16.9034 6.13227C17.1374 8.00072 19.1917 9.50507 21.3731 11.0974C22.9119 12.2176 24.5063 13.3819 25.5929 14.7982C26.9375 16.5467 27.2904 18.3831 26.6757 20.4075Z" fill="url(#paint2_linear_5_3875)"/>
<path d="M16.9032 0.214928V6.13227L16.9072 18.4911L14.8012 17.6109C14.7338 17.5788 14.6624 17.5508 14.595 17.5189C8.98979 15.1005 6.76685 13.8003 6.75808 11.7215C6.75808 10.2132 7.42834 8.84489 8.75303 7.65261C9.80622 6.70598 11.1282 5.98267 12.2967 5.34332L12.3026 5.3401C13.08 4.916 13.8097 4.51591 14.3015 4.13582C15.761 3.00757 16.9032 0.214928 16.9032 0.214928Z" fill="url(#paint3_linear_5_3875)"/>
</g>
<defs>
<linearGradient id="paint0_linear_5_3875" x1="32.9602" y1="30.5558" x2="12.0535" y2="30.5558" gradientUnits="userSpaceOnUse">
<stop stop-color="#42804F"/>
<stop offset="0.1" stop-color="#42804F"/>
<stop offset="0.35" stop-color="#528850"/>
<stop offset="0.85" stop-color="#7EA053"/>
<stop offset="0.87" stop-color="#80A154"/>
<stop offset="1" stop-color="#80A154"/>
</linearGradient>
<linearGradient id="paint1_linear_5_3875" x1="4.78749" y1="33.6876" x2="11.7042" y2="33.6876" gradientUnits="userSpaceOnUse">
<stop stop-color="#80809A"/>
<stop offset="0.14" stop-color="#80809A"/>
<stop offset="0.41" stop-color="#7B7794"/>
<stop offset="0.86" stop-color="#705F86"/>
<stop offset="1" stop-color="#6C5781"/>
</linearGradient>
<linearGradient id="paint2_linear_5_3875" x1="25.5474" y1="10.712" x2="19.6761" y2="10.712" gradientUnits="userSpaceOnUse">
<stop stop-color="#C06F39"/>
<stop offset="0.43" stop-color="#C7803E"/>
<stop offset="0.6" stop-color="#CA873E"/>
<stop offset="1" stop-color="#D1973E"/>
</linearGradient>
<linearGradient id="paint3_linear_5_3875" x1="10.4689" y1="9.05454" x2="18.6968" y2="9.05454" gradientUnits="userSpaceOnUse">
<stop stop-color="#42804F"/>
<stop offset="0.08" stop-color="#42804F"/>
<stop offset="0.12" stop-color="#47834F"/>
<stop offset="0.42" stop-color="#6C9850"/>
<stop offset="0.66" stop-color="#83A651"/>
<stop offset="0.81" stop-color="#8CAB52"/>
<stop offset="1" stop-color="#8CAB52"/>
</linearGradient>
<clipPath id="clip0_5_3875">
<rect width="119" height="51" fill="white"/>
</clipPath>
</defs>
</svg>
