<svg width="157" height="55" viewBox="0 0 157 55" fill="none" xmlns="http://www.w3.org/2000/svg">
<path fill-rule="evenodd" clip-rule="evenodd" d="M27.5 0C42.6908 0 55 12.3092 55 27.5C55 42.6908 42.6908 55 27.5 55C12.3092 55 0 42.6908 0 27.5C0 12.3092 12.3092 0 27.5 0Z" fill="url(#paint0_linear_15_4129)"/>
<path opacity="0.5" fill-rule="evenodd" clip-rule="evenodd" d="M27.5 0.747284C40.8734 0.747284 51.712 10.7848 51.712 23.1658C51.712 35.5467 40.8734 45.5842 27.5 45.5842C14.1266 45.5842 3.28806 35.5467 3.28806 23.1658C3.28806 10.7848 14.1266 0.747284 27.5 0.747284Z" fill="url(#paint1_linear_15_4129)"/>
<path d="M17.4326 33.9685C18.706 33.0538 20.4696 33.269 21.4321 34.4467C23.1419 36.5272 21.3185 39.4804 18.5685 39.0919C16.1234 38.7451 15.0891 35.8218 17.4326 33.9685ZM21.4321 40.1261C18.7478 41.5788 19.3516 44.3647 21.7908 45.1598C24.6902 46.0984 27.2848 43.725 25.9397 41.3696C25.0967 39.8929 23.0761 39.331 21.4321 40.1261ZM5.46414 19.6506C4.19675 21.9761 4.69294 24.2419 6.34294 23.6978C8.65055 22.9326 10.0435 18.7718 8.25599 17.9886C7.41903 17.6239 6.24131 18.3234 5.46414 19.6506ZM9.05109 23.1897C7.5087 25.4375 8.23805 28.1576 10.3005 27.8766C12.8413 27.5359 14.2283 23.5843 12.2734 22.2451C11.3049 21.5756 9.95381 21.9761 9.05109 23.1897ZM13.1641 28.1158C11.281 30.1962 12.1299 33.2212 14.587 33.1734C17.2114 33.1256 18.6761 29.8973 16.9304 28.0201C15.9381 26.95 14.2821 26.9919 13.1641 28.1158ZM10.4022 13.2957C8.44729 15.3641 8.99131 17.4087 10.8027 17.3609C13.3495 17.3071 15.8185 13.8457 14.3359 12.4228C13.4929 11.6158 11.6875 12.0163 10.4022 13.2957ZM14.4375 17.2772C12.1837 19.4891 13.2538 22.2631 15.6631 22.2511C18.4728 22.2272 20.4038 18.6641 18.5326 16.9484C17.4924 16.0038 15.6989 16.1413 14.4375 17.2772ZM19.0647 22.825C16.5717 25.025 17.9467 28.331 20.6429 28.4147C23.5424 28.5103 25.2641 25.0848 23.3571 23.0223C22.275 21.8506 20.3859 21.7669 19.0647 22.825ZM26.0652 18.5685C23.4408 20.4158 24.6125 23.6919 27.3207 24.1163C30.1783 24.5647 32.2169 21.5875 30.5669 19.3636C29.5565 17.9946 27.5359 17.6419 26.0652 18.5685ZM30.3935 24.7261C27.6973 26.7826 29.0663 30.4951 31.8701 30.7641C34.7098 31.0332 36.3897 27.6614 34.5544 25.3658C33.5261 24.0864 31.7386 23.8114 30.3935 24.7261ZM23.8772 29.4071C21.2707 31.4277 22.538 34.925 25.2582 35.2598C28.1516 35.6185 30.0647 32.1989 28.2294 29.9631C27.1712 28.6777 25.2641 28.4386 23.8772 29.4071ZM28.5701 36.037C25.7065 37.95 26.7228 41.5011 29.5027 41.9554C32.4799 42.4337 34.6919 39.1576 32.9701 36.7962C32.0076 35.469 30.0707 35.1343 28.5701 36.037ZM24.744 45.9788C22.0239 46.9234 21.8685 48.8962 23.65 49.7929C26.1728 51.0603 29.7598 49.512 29.1261 47.4196C28.7196 46.0625 26.669 45.387 24.744 45.9788ZM32.1092 42.9658C29.3652 44.5381 29.419 47.2223 31.5294 47.85C34.1777 48.6391 37.3701 45.8891 36.3359 43.7011C35.738 42.4217 33.8011 42.081 32.1092 42.9658ZM34.3571 14.2821C31.344 14.5451 30.5669 17.7016 32.4919 19.2201C34.5603 20.8582 37.675 19.2799 37.3881 16.7451C37.2266 15.2984 35.8875 14.2223 34.3571 14.2821ZM28.8332 9.71469C26.1848 10.3723 25.7663 12.9071 27.5658 13.9533C29.6641 15.1669 32.6712 13.3614 32.0255 11.269C31.6669 10.1033 30.2679 9.42175 28.8332 9.71469ZM36.312 7.5386C33.9266 6.97066 31.8761 8.45327 32.7728 10.0913C33.8788 12.1179 37.6451 12.0103 38.1413 9.93588C38.3924 8.9136 37.6212 7.90327 36.312 7.5386ZM40.5147 11.6158C38.237 11.1196 36.7125 13.3794 37.7527 15.0353C39.0321 17.0859 42.087 16.3984 42.5234 14.3C42.7984 12.9968 41.8179 11.8968 40.5147 11.6158ZM23.6859 6.07393C21.3125 6.7973 20.8402 8.57882 22.2391 9.33208C24.1881 10.3843 27.5598 8.8299 27.0457 7.10817C26.7527 6.13969 25.2103 5.66143 23.6859 6.07393ZM31.1946 4.43588C28.9766 4.43588 27.512 5.70327 28.5761 6.70164C30.0587 8.09458 33.6696 7.44893 33.5321 5.82284C33.4663 5.05762 32.4799 4.47773 31.1946 4.43588ZM36.5332 20.8641C34.0402 22.7951 35.2538 26.1429 37.8544 26.4658C40.6223 26.8065 42.4516 23.5364 40.694 21.3962C39.6897 20.1707 37.8603 19.9375 36.5332 20.8641ZM39.2413 28.6957C37.8245 31.4038 40.1321 33.7174 42.4935 32.8625C45.0223 31.9538 45.3451 28.4685 42.9957 27.3864C41.6745 26.7766 40.0245 27.3506 39.2413 28.6957ZM42.6609 35.1881C41.525 37.7408 42.9658 39.6179 44.7951 38.9663C47.0908 38.1473 47.9277 34.5304 46.0505 33.5141C44.9505 32.9103 43.3962 33.6875 42.6609 35.1881ZM47.4016 31.3859C46.9592 33.7652 48.3761 34.7516 49.8049 33.8609C51.8315 32.6054 52.1902 29.3353 50.3549 28.8631C49.1473 28.5522 47.7723 29.7299 47.4016 31.3859ZM48.8663 27.0098C49.7391 25.7065 49.5837 23.8951 48.5196 22.9685C46.8038 21.4859 44.1076 23.6022 44.4484 26.2207C44.7413 28.4266 47.306 29.1141 48.8663 27.0098ZM45.662 17.3848C44.2451 15.5614 41.2261 16.7571 41.0228 19.3397C40.8554 21.5098 43.6413 22.9386 45.381 21.2587C46.5647 20.1109 46.5467 18.5266 45.662 17.3848Z" fill="#17394C"/>
<path d="M17.4326 33.9685C18.706 33.0538 20.4696 33.269 21.4321 34.4467C23.1419 36.5272 21.3185 39.4804 18.5685 39.0919C16.1234 38.7451 15.0891 35.8218 17.4326 33.9685ZM21.4321 40.1261C18.7478 41.5788 19.3516 44.3647 21.7908 45.1598C24.6902 46.0984 27.2848 43.725 25.9397 41.3696C25.0967 39.8929 23.0761 39.331 21.4321 40.1261ZM5.46414 19.6506C4.19675 21.9761 4.69294 24.2419 6.34294 23.6978C8.65055 22.9326 10.0435 18.7718 8.25599 17.9886C7.41903 17.6239 6.24131 18.3234 5.46414 19.6506ZM9.05109 23.1897C7.5087 25.4375 8.23805 28.1576 10.3005 27.8766C12.8413 27.5359 14.2283 23.5843 12.2734 22.2451C11.3049 21.5756 9.95381 21.9761 9.05109 23.1897ZM13.1641 28.1158C11.281 30.1962 12.1299 33.2212 14.587 33.1734C17.2114 33.1256 18.6761 29.8973 16.9304 28.0201C15.9381 26.95 14.2821 26.9919 13.1641 28.1158ZM10.4022 13.2957C8.44729 15.3641 8.99131 17.4087 10.8027 17.3609C13.3495 17.3071 15.8185 13.8457 14.3359 12.4228C13.4929 11.6158 11.6875 12.0163 10.4022 13.2957ZM14.4375 17.2772C12.1837 19.4891 13.2538 22.2631 15.6631 22.2511C18.4728 22.2272 20.4038 18.6641 18.5326 16.9484C17.4924 16.0038 15.6989 16.1413 14.4375 17.2772ZM19.0647 22.825C16.5717 25.025 17.9467 28.331 20.6429 28.4147C23.5424 28.5103 25.2641 25.0848 23.3571 23.0223C22.275 21.8506 20.3859 21.7669 19.0647 22.825ZM26.0652 18.5685C23.4408 20.4158 24.6125 23.6919 27.3207 24.1163C30.1783 24.5647 32.2169 21.5875 30.5669 19.3636C29.5565 17.9946 27.5359 17.6419 26.0652 18.5685ZM30.3935 24.7261C27.6973 26.7826 29.0663 30.4951 31.8701 30.7641C34.7098 31.0332 36.3897 27.6614 34.5544 25.3658C33.5261 24.0864 31.7386 23.8114 30.3935 24.7261ZM23.8772 29.4071C21.2707 31.4277 22.538 34.925 25.2582 35.2598C28.1516 35.6185 30.0647 32.1989 28.2294 29.9631C27.1712 28.6777 25.2641 28.4386 23.8772 29.4071ZM28.5701 36.037C25.7065 37.95 26.7228 41.5011 29.5027 41.9554C32.4799 42.4337 34.6919 39.1576 32.9701 36.7962C32.0076 35.469 30.0707 35.1343 28.5701 36.037ZM24.744 45.9788C22.0239 46.9234 21.8685 48.8962 23.65 49.7929C26.1728 51.0603 29.7598 49.512 29.1261 47.4196C28.7196 46.0625 26.669 45.387 24.744 45.9788ZM32.1092 42.9658C29.3652 44.5381 29.419 47.2223 31.5294 47.85C34.1777 48.6391 37.3701 45.8891 36.3359 43.7011C35.738 42.4217 33.8011 42.081 32.1092 42.9658ZM34.3571 14.2821C31.344 14.5451 30.5669 17.7016 32.4919 19.2201C34.5603 20.8582 37.675 19.2799 37.3881 16.7451C37.2266 15.2984 35.8875 14.2223 34.3571 14.2821ZM28.8332 9.71469C26.1848 10.3723 25.7663 12.9071 27.5658 13.9533C29.6641 15.1669 32.6712 13.3614 32.0255 11.269C31.6669 10.1033 30.2679 9.42175 28.8332 9.71469ZM36.312 7.5386C33.9266 6.97066 31.8761 8.45327 32.7728 10.0913C33.8788 12.1179 37.6451 12.0103 38.1413 9.93588C38.3924 8.9136 37.6212 7.90327 36.312 7.5386ZM40.5147 11.6158C38.237 11.1196 36.7125 13.3794 37.7527 15.0353C39.0321 17.0859 42.087 16.3984 42.5234 14.3C42.7984 12.9968 41.8179 11.8968 40.5147 11.6158ZM23.6859 6.07393C21.3125 6.7973 20.8402 8.57882 22.2391 9.33208C24.1881 10.3843 27.5598 8.8299 27.0457 7.10817C26.7527 6.13969 25.2103 5.66143 23.6859 6.07393ZM31.1946 4.43588C28.9766 4.43588 27.512 5.70327 28.5761 6.70164C30.0587 8.09458 33.6696 7.44893 33.5321 5.82284C33.4663 5.05762 32.4799 4.47773 31.1946 4.43588ZM36.5332 20.8641C34.0402 22.7951 35.2538 26.1429 37.8544 26.4658C40.6223 26.8065 42.4516 23.5364 40.694 21.3962C39.6897 20.1707 37.8603 19.9375 36.5332 20.8641ZM39.2413 28.6957C37.8245 31.4038 40.1321 33.7174 42.4935 32.8625C45.0223 31.9538 45.3451 28.4685 42.9957 27.3864C41.6745 26.7766 40.0245 27.3506 39.2413 28.6957ZM42.6609 35.1881C41.525 37.7408 42.9658 39.6179 44.7951 38.9663C47.0908 38.1473 47.9277 34.5304 46.0505 33.5141C44.9505 32.9103 43.3962 33.6875 42.6609 35.1881ZM47.4016 31.3859C46.9592 33.7652 48.3761 34.7516 49.8049 33.8609C51.8315 32.6054 52.1902 29.3353 50.3549 28.8631C49.1473 28.5522 47.7723 29.7299 47.4016 31.3859ZM48.8663 27.0098C49.7391 25.7065 49.5837 23.8951 48.5196 22.9685C46.8038 21.4859 44.1076 23.6022 44.4484 26.2207C44.7413 28.4266 47.306 29.1141 48.8663 27.0098ZM45.662 17.3848C44.2451 15.5614 41.2261 16.7571 41.0228 19.3397C40.8554 21.5098 43.6413 22.9386 45.381 21.2587C46.5647 20.1109 46.5467 18.5266 45.662 17.3848Z" fill="#F2F2F2"/>
<path d="M66.1508 32V13.8182H68.8941V21.7195H77.9584V13.8182H80.7105V32H77.9584V24.0721H68.8941V32H66.1508ZM90.2364 32.2752C88.958 32.2752 87.8424 31.9822 86.8895 31.3963C85.9366 30.8104 85.1968 29.9906 84.67 28.9371C84.1433 27.8836 83.8799 26.6526 83.8799 25.244C83.8799 23.8294 84.1433 22.5924 84.67 21.533C85.1968 20.4736 85.9366 19.6509 86.8895 19.065C87.8424 18.479 88.958 18.1861 90.2364 18.1861C91.5148 18.1861 92.6305 18.479 93.5834 19.065C94.5363 19.6509 95.2761 20.4736 95.8028 21.533C96.3296 22.5924 96.593 23.8294 96.593 25.244C96.593 26.6526 96.3296 27.8836 95.8028 28.9371C95.2761 29.9906 94.5363 30.8104 93.5834 31.3963C92.6305 31.9822 91.5148 32.2752 90.2364 32.2752ZM90.2453 30.0469C91.0739 30.0469 91.7604 29.8279 92.305 29.3899C92.8495 28.9519 93.2519 28.369 93.5123 27.641C93.7787 26.913 93.9118 26.111 93.9118 25.2351C93.9118 24.3651 93.7787 23.5661 93.5123 22.8381C93.2519 22.1042 92.8495 21.5153 92.305 21.0714C91.7604 20.6275 91.0739 20.4055 90.2453 20.4055C89.4108 20.4055 88.7183 20.6275 88.1679 21.0714C87.6234 21.5153 87.218 22.1042 86.9516 22.8381C86.6912 23.5661 86.561 24.3651 86.561 25.2351C86.561 26.111 86.6912 26.913 86.9516 27.641C87.218 28.369 87.6234 28.9519 88.1679 29.3899C88.7183 29.8279 89.4108 30.0469 90.2453 30.0469ZM99.5559 32V18.3636H102.122V20.5298H102.264C102.512 19.7959 102.95 19.2189 103.578 18.7987C104.211 18.3725 104.927 18.1594 105.726 18.1594C105.892 18.1594 106.087 18.1654 106.312 18.1772C106.543 18.189 106.723 18.2038 106.854 18.2216V20.7607C106.747 20.7311 106.558 20.6985 106.285 20.663C106.013 20.6216 105.741 20.6009 105.469 20.6009C104.841 20.6009 104.282 20.734 103.791 21.0004C103.305 21.2608 102.921 21.6248 102.637 22.0923C102.352 22.554 102.21 23.0807 102.21 23.6726V32H99.5559ZM109.151 32V18.3636H111.805V32H109.151ZM110.491 16.2596C110.03 16.2596 109.633 16.1057 109.302 15.7979C108.976 15.4843 108.813 15.1114 108.813 14.6793C108.813 14.2414 108.976 13.8685 109.302 13.5607C109.633 13.247 110.03 13.0902 110.491 13.0902C110.953 13.0902 111.346 13.247 111.672 13.5607C112.003 13.8685 112.169 14.2414 112.169 14.6793C112.169 15.1114 112.003 15.4843 111.672 15.7979C111.346 16.1057 110.953 16.2596 110.491 16.2596ZM115.092 32V30.18L122.479 20.7962V20.6719H115.332V18.3636H125.79V20.299L118.688 29.5675V29.6918H126.039V32H115.092ZM134.524 32.2752C133.245 32.2752 132.129 31.9822 131.177 31.3963C130.224 30.8104 129.484 29.9906 128.957 28.9371C128.43 27.8836 128.167 26.6526 128.167 25.244C128.167 23.8294 128.43 22.5924 128.957 21.533C129.484 20.4736 130.224 19.6509 131.177 19.065C132.129 18.479 133.245 18.1861 134.524 18.1861C135.802 18.1861 136.918 18.479 137.87 19.065C138.823 19.6509 139.563 20.4736 140.09 21.533C140.617 22.5924 140.88 23.8294 140.88 25.244C140.88 26.6526 140.617 27.8836 140.09 28.9371C139.563 29.9906 138.823 30.8104 137.87 31.3963C136.918 31.9822 135.802 32.2752 134.524 32.2752ZM134.532 30.0469C135.361 30.0469 136.048 29.8279 136.592 29.3899C137.137 28.9519 137.539 28.369 137.799 27.641C138.066 26.913 138.199 26.111 138.199 25.2351C138.199 24.3651 138.066 23.5661 137.799 22.8381C137.539 22.1042 137.137 21.5153 136.592 21.0714C136.048 20.6275 135.361 20.4055 134.532 20.4055C133.698 20.4055 133.005 20.6275 132.455 21.0714C131.91 21.5153 131.505 22.1042 131.239 22.8381C130.978 23.5661 130.848 24.3651 130.848 25.2351C130.848 26.111 130.978 26.913 131.239 27.641C131.505 28.369 131.91 28.9519 132.455 29.3899C133.005 29.8279 133.698 30.0469 134.532 30.0469ZM146.498 23.9034V32H143.843V18.3636H146.391V20.5831H146.56C146.873 19.861 147.365 19.281 148.033 18.843C148.708 18.4051 149.557 18.1861 150.581 18.1861C151.511 18.1861 152.324 18.3814 153.023 18.772C153.721 19.1567 154.263 19.7308 154.647 20.4943C155.032 21.2578 155.224 22.2018 155.224 23.3263V32H152.57V23.646C152.57 22.6576 152.313 21.8852 151.798 21.3288C151.283 20.7666 150.575 20.4854 149.676 20.4854C149.06 20.4854 148.513 20.6186 148.033 20.8849C147.56 21.1513 147.184 21.5419 146.906 22.0568C146.634 22.5658 146.498 23.1813 146.498 23.9034Z" fill="white"/>
<path d="M115.874 48V41.4545H116.83V43.8867H116.888C116.943 43.7844 117.023 43.6662 117.127 43.532C117.232 43.3977 117.377 43.2805 117.562 43.1804C117.747 43.0781 117.992 43.027 118.297 43.027C118.693 43.027 119.047 43.1271 119.358 43.3274C119.669 43.5277 119.913 43.8164 120.09 44.1935C120.269 44.5707 120.358 45.0245 120.358 45.555C120.358 46.0856 120.27 46.5405 120.093 46.9197C119.916 47.2969 119.673 47.5877 119.364 47.7923C119.055 47.9947 118.703 48.0959 118.307 48.0959C118.008 48.0959 117.764 48.0458 117.575 47.9457C117.387 47.8455 117.24 47.7283 117.134 47.5941C117.027 47.4599 116.945 47.3406 116.888 47.2362H116.808V48H115.874ZM116.811 45.5455C116.811 45.8906 116.861 46.1932 116.961 46.4531C117.061 46.7131 117.206 46.9165 117.396 47.0636C117.585 47.2085 117.818 47.2809 118.092 47.2809C118.378 47.2809 118.617 47.2053 118.808 47.054C119 46.9006 119.145 46.6928 119.243 46.4308C119.343 46.1687 119.393 45.8736 119.393 45.5455C119.393 45.2216 119.344 44.9308 119.246 44.6729C119.15 44.4151 119.005 44.2116 118.812 44.0625C118.62 43.9134 118.38 43.8388 118.092 43.8388C117.815 43.8388 117.581 43.9102 117.389 44.0529C117.2 44.1957 117.056 44.3949 116.958 44.6506C116.86 44.9062 116.811 45.2045 116.811 45.5455ZM121.869 49.8409C121.726 49.8409 121.596 49.8292 121.479 49.8058C121.361 49.7844 121.274 49.761 121.217 49.7354L121.447 48.9524C121.621 48.9993 121.777 49.0195 121.913 49.0131C122.05 49.0067 122.17 48.9556 122.274 48.8597C122.381 48.7638 122.475 48.6072 122.556 48.3899L122.674 48.0639L120.878 43.0909H121.9L123.144 46.9006H123.195L124.438 43.0909H125.464L123.441 48.6552C123.347 48.9109 123.228 49.1271 123.083 49.304C122.938 49.483 122.766 49.6172 122.565 49.7067C122.365 49.7962 122.133 49.8409 121.869 49.8409ZM129.393 41.4545L131.214 46.7855H131.288L133.11 41.4545H134.177L131.822 48H130.681L128.325 41.4545H129.393ZM136.11 41.4545V48H135.122V41.4545H136.11ZM141.118 43.174C141.084 42.8714 140.943 42.6371 140.696 42.4709C140.449 42.3026 140.138 42.2184 139.763 42.2184C139.495 42.2184 139.262 42.261 139.066 42.3462C138.87 42.4293 138.718 42.5444 138.609 42.6914C138.503 42.8363 138.449 43.0014 138.449 43.1868C138.449 43.3423 138.486 43.4766 138.558 43.5895C138.633 43.7024 138.73 43.7972 138.849 43.8739C138.97 43.9485 139.1 44.0114 139.239 44.0625C139.377 44.1115 139.511 44.152 139.638 44.1839L140.278 44.3501C140.486 44.4013 140.701 44.4705 140.92 44.5579C141.139 44.6452 141.343 44.7603 141.53 44.9031C141.718 45.0458 141.869 45.2227 141.984 45.4336C142.101 45.6445 142.16 45.897 142.16 46.1911C142.16 46.5618 142.064 46.891 141.872 47.1786C141.683 47.4663 141.407 47.6932 141.045 47.8594C140.685 48.0256 140.249 48.1087 139.737 48.1087C139.247 48.1087 138.823 48.0309 138.465 47.8754C138.108 47.7198 137.827 47.4993 137.625 47.2138C137.422 46.9261 137.311 46.5852 137.289 46.1911H138.28C138.299 46.4276 138.376 46.6246 138.51 46.7823C138.647 46.9379 138.82 47.054 139.031 47.1307C139.244 47.2053 139.478 47.2425 139.731 47.2425C140.01 47.2425 140.258 47.1989 140.476 47.1115C140.695 47.022 140.868 46.8984 140.994 46.7408C141.119 46.581 141.182 46.3945 141.182 46.1815C141.182 45.9876 141.127 45.8288 141.016 45.7053C140.907 45.5817 140.759 45.4794 140.572 45.3984C140.386 45.3175 140.176 45.2461 139.942 45.1843L139.169 44.9734C138.644 44.8306 138.229 44.6207 137.922 44.3438C137.617 44.0668 137.465 43.7003 137.465 43.2443C137.465 42.8672 137.567 42.538 137.772 42.2567C137.976 41.9755 138.253 41.7571 138.603 41.6016C138.952 41.4439 139.347 41.3651 139.785 41.3651C140.229 41.3651 140.62 41.4428 140.958 41.5984C141.299 41.7539 141.568 41.968 141.764 42.2408C141.96 42.5114 142.062 42.8224 142.071 43.174H141.118ZM143.34 41.4545H144.539L146.623 46.5426H146.699L148.783 41.4545H149.982V48H149.042V43.2635H148.981L147.051 47.9904H146.271L144.341 43.2603H144.28V48H143.34V41.4545ZM151.97 48H150.922L153.277 41.4545H154.418L156.774 48H155.726L153.875 42.6435H153.824L151.97 48ZM152.146 45.4368H155.547V46.2678H152.146V45.4368Z" fill="white"/>
<defs>
<linearGradient id="paint0_linear_15_4129" x1="27.5" y1="0" x2="27.5" y2="54.3891" gradientUnits="userSpaceOnUse">
<stop stop-color="#0060A1"/>
<stop offset="1" stop-color="#007ACA"/>
</linearGradient>
<linearGradient id="paint1_linear_15_4129" x1="27.5" y1="0.747284" x2="27.5" y2="70.4702" gradientUnits="userSpaceOnUse">
<stop offset="2.01278e-07" stop-color="#0087E0"/>
<stop offset="0.4616" stop-color="#4E69D0"/>
<stop offset="0.6345" stop-color="#356ECE"/>
<stop offset="1" stop-color="#007ACA"/>
</linearGradient>
</defs>
</svg>
