<svg width="52" height="52" viewBox="0 0 52 52" fill="none" xmlns="http://www.w3.org/2000/svg">
<g clip-path="url(#clip0_15_4208)">
<path d="M43.2488 10.0132C43.2128 9.75061 42.9829 9.60538 42.7933 9.58953C42.6036 9.57369 38.9021 9.51742 38.9021 9.51742C38.9021 9.51742 35.8064 6.51087 35.5006 6.20486C35.1948 5.89885 34.5974 5.99168 34.3655 6.05993C34.3621 6.06095 33.7846 6.2398 32.8099 6.54154C32.6473 6.01321 32.4074 5.36433 32.0655 4.7123C30.9632 2.60955 29.3494 1.49653 27.3989 1.49368C27.3967 1.49368 27.3947 1.49368 27.3923 1.49368C27.2571 1.49368 27.1224 1.50638 26.9875 1.51867C26.9302 1.4496 26.8722 1.38115 26.8112 1.31585C25.962 0.406962 24.8715 -0.0358501 23.5664 0.002439C21.0468 0.0746499 18.5389 1.89394 16.5047 5.12485C15.0728 7.39883 13.985 10.2555 13.6756 12.4664C10.7833 13.3621 8.75967 13.9888 8.71589 14.0025C7.25593 14.4607 7.21003 14.5066 7.01858 15.882C6.87365 16.9234 3.05399 46.4636 3.05399 46.4636L35.0699 52L48.9458 48.551C48.9458 48.551 43.2846 10.2757 43.2488 10.0132ZM15.4692 11.9108C16.3349 7.86297 19.7267 1.79024 23.6148 1.67842C24.2063 1.66603 24.7045 1.79583 25.1299 2.07584C24.4494 2.42917 23.7912 2.93699 23.1738 3.59917C21.5736 5.31578 20.3478 7.98119 19.859 10.5514C18.3336 11.0238 16.8417 11.4858 15.4692 11.9108ZM27.0467 8.32589C25.3695 8.84518 23.5384 9.41221 21.7016 9.98096C22.2187 8.00272 23.1976 6.03312 24.4005 4.74277C24.848 4.26278 25.474 3.72714 26.2152 3.42134C26.9125 4.87439 27.0636 6.93428 27.0467 8.32589ZM28.7215 7.80731C28.7029 6.53159 28.5505 4.75719 27.9563 3.22329C29.8678 3.58546 30.809 5.74834 31.2062 7.03798C30.4696 7.26599 29.6305 7.52578 28.7215 7.80731Z" fill="#95BF47"/>
<path d="M42.7932 9.58953C42.6036 9.57369 38.9021 9.51742 38.9021 9.51742C38.9021 9.51742 35.8064 6.51087 35.5006 6.20486C35.3865 6.0907 35.2318 6.03231 35.0707 6.00712L35.0716 51.9997L48.9458 48.551C48.9458 48.551 43.2847 10.2757 43.2488 10.0131C43.2128 9.75061 42.9829 9.60538 42.7932 9.58953Z" fill="#5E8E3E"/>
<path d="M27.3804 16.7241L25.7687 22.7529C25.7687 22.7529 23.9711 21.9344 21.8398 22.0689C18.7148 22.2663 18.6816 24.2375 18.7128 24.7315C18.883 27.4279 25.9763 28.017 26.3751 34.3324C26.6888 39.301 23.7396 42.6997 19.4901 42.968C14.3908 43.29 11.5829 40.281 11.5829 40.281L12.6634 35.6838C12.6634 35.6838 15.4892 37.8158 17.7512 37.673C19.2287 37.5796 19.7566 36.378 19.703 35.5281C19.4809 32.0108 13.7048 32.218 13.3399 26.4387C13.0328 21.5747 16.2267 16.6472 23.2744 16.2022C25.9898 16.0308 27.3804 16.7241 27.3804 16.7241Z" fill="white"/>
</g>
<defs>
<clipPath id="clip0_15_4208">
<rect width="52" height="52" fill="white"/>
</clipPath>
</defs>
</svg>
