<svg width="115" height="69" viewBox="0 0 115 69" fill="none" xmlns="http://www.w3.org/2000/svg">
<g clip-path="url(#clip0_17_47)">
<path d="M17.658 50.0807C16.0753 50.0807 14.8511 49.5242 13.9855 48.4113C13.1198 47.2984 12.6871 45.6538 12.6871 43.4774V34.6113C12.6871 33.2758 12.8726 32.1134 13.2435 31.1242C13.6145 30.1102 14.1709 29.3189 14.9129 28.75C15.6548 28.1812 16.5698 27.8968 17.658 27.8968C18.4495 27.8968 19.2037 28.0576 19.9209 28.3791C20.6382 28.6758 21.2935 29.0839 21.8871 29.6033V19.6613H27.9338V49.7097H21.8871V48.0403C21.2193 48.6834 20.5269 49.1904 19.8097 49.5613C19.0924 49.9076 18.3753 50.0807 17.658 50.0807ZM20.2919 46.2226C20.4898 46.2226 20.7247 46.1731 20.9967 46.0742C21.2935 45.9753 21.5903 45.8392 21.8871 45.6662V32.1258C21.6398 32.0022 21.3801 31.8909 21.108 31.792C20.836 31.6931 20.5763 31.6436 20.329 31.6436C19.7849 31.6436 19.3892 31.8785 19.1419 32.3484C18.8946 32.7936 18.7709 33.3376 18.7709 33.9807V43.8484C18.7709 44.2936 18.8204 44.7016 18.9193 45.0726C19.0182 45.4189 19.179 45.7033 19.4016 45.9258C19.6242 46.1237 19.9209 46.2226 20.2919 46.2226Z" fill="#273F3E"/>
<path d="M31.1613 49.7097V19.6613H37.8016V31.9403L42.8468 19.6613H49.3387L43.7742 33.2387L49.5984 49.7097H42.8468L38.5065 36.4291L37.8016 37.6162V49.7097H31.1613ZM55.2609 50.0807C54.3953 50.0807 53.6534 49.8705 53.0351 49.45C52.4415 49.0049 51.9963 48.3989 51.6996 47.6323C51.4028 46.8656 51.2544 46.0124 51.2544 45.0726V28.2678H57.3012V44.3678C57.3012 44.8871 57.3878 45.2952 57.5609 45.592C57.7587 45.864 58.0926 46 58.5625 46C58.8345 46 59.1189 45.9382 59.4157 45.8145C59.7125 45.6662 60.0216 45.5054 60.3431 45.3323V28.2678H66.3528V49.7097H60.3431V47.7436C59.5765 48.4608 58.7603 49.0296 57.8947 49.45C57.0539 49.8705 56.176 50.0807 55.2609 50.0807ZM80.8168 50.0807C80.0259 50.0807 79.2343 49.9076 78.4426 49.5613C77.6762 49.1904 76.9343 48.6957 76.2168 48.0774V49.7097H70.1703V19.6613H76.2168V29.8258C76.9588 29.1828 77.7259 28.7005 78.5168 28.3791C79.333 28.0576 80.1246 27.8968 80.891 27.8968C81.7072 27.8968 82.4001 28.0576 82.9684 28.3791C83.562 28.7005 84.0443 29.1581 84.4152 29.7516C84.7862 30.3205 85.0585 30.9882 85.2313 31.7549C85.405 32.5215 85.491 33.3376 85.491 34.2033V43.4403C85.491 44.7758 85.3055 45.9382 84.9346 46.9274C84.5888 47.9167 84.0695 48.6957 83.3765 49.2645C82.6843 49.8086 81.8311 50.0807 80.8168 50.0807ZM77.8862 46.1855C78.2824 46.1855 78.591 46.0742 78.8136 45.8516C79.0362 45.6291 79.1972 45.3447 79.2959 44.9984C79.3953 44.6274 79.4443 44.2194 79.4443 43.7742V33.7581C79.4443 33.3376 79.3953 32.9667 79.2959 32.6452C79.1972 32.2989 79.0362 32.0269 78.8136 31.8291C78.6162 31.6312 78.3314 31.5323 77.9604 31.5323C77.6391 31.5323 77.3297 31.6065 77.033 31.7549C76.7614 31.8785 76.4891 32.0392 76.2168 32.2371V45.592C76.4891 45.7651 76.7614 45.9134 77.033 46.0371C77.3297 46.136 77.6146 46.1855 77.8862 46.1855ZM95.5391 50.0807C93.6597 50.0807 92.0891 49.6602 90.8278 48.8194C89.5917 47.9785 88.5775 46.606 87.7858 44.7016L91.9036 42.8839C92.2998 43.8484 92.7568 44.6151 93.2762 45.1839C93.8207 45.728 94.4143 46 95.0568 46C95.5272 46 95.8729 45.9011 96.0955 45.7033C96.3433 45.5054 96.4665 45.2334 96.4665 44.8871C96.4665 44.3183 96.2439 43.7989 95.7987 43.3291C95.3788 42.8592 94.6116 42.1667 93.4987 41.2516L91.9407 39.9533C90.8033 38.9887 89.9003 38.0613 89.2326 37.171C88.5901 36.256 88.2681 35.1307 88.2681 33.7952C88.2681 32.6328 88.5649 31.6065 89.1584 30.7162C89.7772 29.8258 90.5933 29.1334 91.6068 28.6387C92.621 28.1441 93.7094 27.8968 94.8713 27.8968C96.652 27.8968 98.1358 28.3791 99.3229 29.3436C100.51 30.3081 101.351 31.6683 101.846 33.4242L97.8762 35.2049C97.7278 34.735 97.5178 34.2651 97.2455 33.7952C96.974 33.3253 96.652 32.9296 96.281 32.6081C95.91 32.2866 95.4901 32.1258 95.0197 32.1258C94.6243 32.1258 94.303 32.2371 94.0552 32.4597C93.8326 32.6823 93.7213 32.9791 93.7213 33.35C93.7213 33.8199 93.981 34.3269 94.5004 34.871C95.0449 35.4151 95.7869 36.0705 96.7262 36.8371L98.2471 38.1726C98.8659 38.692 99.4713 39.2484 100.065 39.842C100.658 40.4355 101.141 41.0909 101.512 41.8081C101.908 42.5253 102.105 43.3414 102.105 44.2565C102.105 45.4931 101.797 46.5565 101.178 47.4468C100.56 48.3124 99.7436 48.9678 98.7294 49.4129C97.7404 49.8581 96.6772 50.0807 95.5391 50.0807Z" fill="#206D69"/>
<path d="M5.93548 26.7097H0V69H5.93548V26.7097Z" fill="#206D69"/>
<path d="M109.065 42.2903H115V2.28882e-05H109.065V42.2903Z" fill="#206D69"/>
<path d="M0 63.0645L0 69H42.2903V63.0645H0Z" fill="#206D69"/>
<path d="M115 5.93548V0L72.7097 0V5.93548L115 5.93548Z" fill="#206D69"/>
</g>
<defs>
<clipPath id="clip0_17_47">
<rect width="115" height="69" fill="white"/>
</clipPath>
</defs>
</svg>
