<svg width="80" height="48" viewBox="0 0 80 48" fill="none" xmlns="http://www.w3.org/2000/svg">
<g clip-path="url(#clip0_83_423)">
<path d="M12.2842 34.8387C11.1832 34.8387 10.3316 34.4516 9.7294 33.6774C9.12723 32.9032 8.82617 31.7591 8.82617 30.2452V24.0774C8.82617 23.1484 8.9552 22.3398 9.21327 21.6516C9.47133 20.9462 9.85843 20.3957 10.3746 20C10.8907 19.6043 11.5272 19.4064 12.2842 19.4064C12.8348 19.4064 13.3595 19.5183 13.8584 19.7419C14.3574 19.9484 14.8133 20.2323 15.2262 20.5935V13.6774H19.4326V34.5806H15.2262V33.4194C14.7617 33.8667 14.28 34.2194 13.781 34.4774C13.2821 34.7183 12.7832 34.8387 12.2842 34.8387ZM14.1165 32.1548C14.2541 32.1548 14.4176 32.1204 14.6068 32.0516C14.8133 31.9828 15.0197 31.8882 15.2262 31.7677V22.3484C15.0541 22.2623 14.8735 22.1849 14.6842 22.1161C14.495 22.0473 14.3143 22.0129 14.1423 22.0129C13.7638 22.0129 13.4885 22.1764 13.3165 22.5032C13.1445 22.8129 13.0584 23.1914 13.0584 23.6387V30.5032C13.0584 30.8129 13.0929 31.0968 13.1617 31.3548C13.2305 31.5957 13.3423 31.7935 13.4971 31.9484C13.652 32.086 13.8584 32.1548 14.1165 32.1548Z" fill="white"/>
<path d="M21.6777 34.5806V13.6774H26.2971V22.2193L29.8068 13.6774H34.3229L30.4519 23.1226L34.5035 34.5806H29.8068L26.7874 25.3419L26.2971 26.1677V34.5806H21.6777ZM38.4426 34.8387C37.8405 34.8387 37.3244 34.6925 36.8943 34.4C36.4813 34.0903 36.1717 33.6688 35.9652 33.1355C35.7588 32.6022 35.6555 32.0086 35.6555 31.3548V19.6645H39.862V30.8645C39.862 31.2258 39.9222 31.5097 40.0426 31.7161C40.1803 31.9054 40.4125 32 40.7394 32C40.9287 32 41.1265 31.957 41.333 31.871C41.5394 31.7677 41.7545 31.6559 41.9781 31.5355V19.6645H46.1588V34.5806H41.9781V33.2129C41.4448 33.7118 40.8771 34.1075 40.2749 34.4C39.69 34.6925 39.0792 34.8387 38.4426 34.8387ZM56.2207 34.8387C55.6705 34.8387 55.1198 34.7183 54.5691 34.4774C54.0359 34.2194 53.5198 33.8752 53.0207 33.4452V34.5806H48.8144V13.6774H53.0207V20.7484C53.5368 20.3011 54.0705 19.9656 54.6207 19.7419C55.1884 19.5183 55.7392 19.4064 56.2723 19.4064C56.8401 19.4064 57.3221 19.5183 57.7175 19.7419C58.1304 19.9656 58.4659 20.2839 58.7239 20.6968C58.982 21.0925 59.1714 21.557 59.2917 22.0903C59.4124 22.6236 59.4723 23.1914 59.4723 23.7935V30.2194C59.4723 31.1484 59.3433 31.957 59.0852 32.6452C58.8447 33.3333 58.4834 33.8752 58.0013 34.271C57.5198 34.6494 56.9263 34.8387 56.2207 34.8387ZM54.182 32.129C54.4576 32.129 54.6723 32.0516 54.8272 31.8968C54.982 31.7419 55.094 31.5441 55.1626 31.3032C55.2318 31.0452 55.2659 30.7613 55.2659 30.4516V23.4839C55.2659 23.1914 55.2318 22.9333 55.1626 22.7097C55.094 22.4688 54.982 22.2796 54.8272 22.1419C54.6899 22.0043 54.4917 21.9355 54.2336 21.9355C54.0101 21.9355 53.7949 21.9871 53.5884 22.0903C53.3995 22.1764 53.2101 22.2882 53.0207 22.4258V31.7161C53.2101 31.8365 53.3995 31.9398 53.5884 32.0258C53.7949 32.0946 53.9931 32.129 54.182 32.129ZM66.4622 34.8387C65.1549 34.8387 64.0622 34.5462 63.1848 33.9613C62.325 33.3764 61.6194 32.4215 61.0687 31.0968L63.9332 29.8323C64.2088 30.5032 64.5268 31.0365 64.8881 31.4323C65.2669 31.8107 65.6798 32 66.1268 32C66.454 32 66.6945 31.9312 66.8493 31.7935C67.0217 31.6559 67.1074 31.4667 67.1074 31.2258C67.1074 30.8301 66.9526 30.4688 66.6429 30.1419C66.3508 29.8151 65.8171 29.3333 65.0429 28.6968L63.959 27.7935C63.1678 27.1226 62.5397 26.4774 62.0751 25.8581C61.6282 25.2215 61.4042 24.4387 61.4042 23.5097C61.4042 22.7011 61.6106 21.9871 62.0235 21.3677C62.454 20.7484 63.0217 20.2667 63.7268 19.9226C64.4323 19.5785 65.1895 19.4064 65.9977 19.4064C67.2364 19.4064 68.2687 19.7419 69.0945 20.4129C69.9203 21.0839 70.5056 22.0301 70.8493 23.2516L68.0881 24.4903C67.9848 24.1635 67.8388 23.8365 67.6493 23.5097C67.4604 23.1828 67.2364 22.9075 66.9784 22.6839C66.7203 22.4602 66.4282 22.3484 66.101 22.3484C65.8259 22.3484 65.6024 22.4258 65.43 22.5806C65.2752 22.7355 65.1977 22.9419 65.1977 23.2C65.1977 23.5269 65.3784 23.8796 65.7397 24.2581C66.1185 24.6365 66.6346 25.0925 67.2881 25.6258L68.3461 26.5548C68.7766 26.9161 69.1977 27.3032 69.6106 27.7161C70.0235 28.129 70.359 28.5849 70.6171 29.0839C70.8927 29.5828 71.03 30.1506 71.03 30.7871C71.03 31.6473 70.8153 32.3871 70.3848 33.0064C69.9549 33.6086 69.3872 34.0645 68.6816 34.3742C67.9936 34.6839 67.254 34.8387 66.4622 34.8387Z" fill="white"/>
<path d="M4.12903 18.5806H0V48H4.12903V18.5806Z" fill="white"/>
<path d="M75.871 29.4194H80V3.8147e-06H75.871V29.4194Z" fill="white"/>
<path d="M0 43.871L0 48H29.4194V43.871H0Z" fill="white"/>
<path d="M80 4.12903V0L50.5806 0V4.12903L80 4.12903Z" fill="white"/>
</g>
<defs>
<clipPath id="clip0_83_423">
<rect width="80" height="48" fill="white"/>
</clipPath>
</defs>
</svg>
