<svg width="54" height="54" viewBox="0 0 54 54" fill="none" xmlns="http://www.w3.org/2000/svg">
<path d="M30.375 35.4358C30.1514 35.4364 29.9372 35.5256 29.7791 35.6836C29.621 35.8417 29.5319 36.0559 29.5313 36.2795V46.4039C29.5309 46.5148 29.5524 46.6247 29.5947 46.7273C29.6369 46.8298 29.6991 46.923 29.7775 47.0014C29.8559 47.0798 29.9491 47.142 30.0516 47.1842C30.1542 47.2265 30.264 47.248 30.375 47.2477H34.5935C34.7044 47.248 34.8143 47.2265 34.9168 47.1842C35.0194 47.142 35.1125 47.0798 35.1909 47.0014C35.2694 46.923 35.3315 46.8298 35.3738 46.7273C35.416 46.6247 35.4376 46.5148 35.4372 46.4039V36.2795C35.4365 36.0559 35.3474 35.8417 35.1893 35.6836C35.0313 35.5255 34.817 35.4364 34.5935 35.4358H30.375Z" fill="#206D69"/>
<path d="M49.78 26.155H45.5615C45.3379 26.1557 45.1237 26.2448 44.9656 26.4029C44.8075 26.561 44.7184 26.7752 44.7178 26.9987V46.4039C44.7174 46.5148 44.7389 46.6247 44.7812 46.7273C44.8235 46.8298 44.8856 46.923 44.964 47.0014C45.0424 47.0798 45.1356 47.1419 45.2381 47.1842C45.3407 47.2265 45.4506 47.248 45.5615 47.2476H49.78C49.8909 47.248 50.0008 47.2265 50.1033 47.1842C50.2059 47.1419 50.299 47.0798 50.3775 47.0014C50.4559 46.923 50.518 46.8298 50.5603 46.7273C50.6025 46.6247 50.6241 46.5148 50.6237 46.4039V26.9987C50.623 26.7752 50.5339 26.561 50.3759 26.4029C50.2178 26.2448 50.0036 26.1557 49.78 26.155Z" fill="#206D69"/>
<path d="M22.7812 38.8106C22.5576 38.8112 22.3434 38.9004 22.1853 39.0584C22.0272 39.2165 21.9382 39.4308 21.9375 39.6543V46.404C21.9371 46.5149 21.9587 46.6248 22.0009 46.7273C22.0432 46.8298 22.1053 46.923 22.1837 47.0014C22.2622 47.0798 22.3553 47.142 22.4579 47.1842C22.5604 47.2265 22.6703 47.2481 22.7812 47.2477H26.9997C27.1106 47.2481 27.2205 47.2265 27.3231 47.1843C27.4256 47.142 27.5188 47.0799 27.5972 47.0014C27.6757 46.923 27.7378 46.8298 27.7801 46.7273C27.8223 46.6247 27.8439 46.5148 27.8435 46.4039V39.6543C27.8428 39.4307 27.7537 39.2165 27.5956 39.0584C27.4376 38.9003 27.2233 38.8112 26.9998 38.8105L22.7812 38.8106Z" fill="#206D69"/>
<path d="M37.9677 31.2173C37.7442 31.218 37.5299 31.3071 37.3719 31.4652C37.2138 31.6233 37.1247 31.8375 37.124 32.0611V46.404C37.1236 46.5149 37.1452 46.6248 37.1875 46.7273C37.2297 46.8299 37.2918 46.923 37.3703 47.0015C37.4487 47.0799 37.5419 47.142 37.6444 47.1843C37.7469 47.2265 37.8568 47.2481 37.9677 47.2477H42.1862C42.2971 47.2481 42.407 47.2265 42.5096 47.1843C42.6121 47.142 42.7053 47.0799 42.7837 47.0015C42.8621 46.923 42.9242 46.8299 42.9665 46.7273C43.0088 46.6248 43.0303 46.5149 43.0299 46.404V32.061C43.0293 31.8375 42.9402 31.6232 42.7821 31.4651C42.624 31.3071 42.4098 31.2179 42.1862 31.2173L37.9677 31.2173Z" fill="#206D69"/>
<path d="M49.78 48.9375H22.7815C22.5582 48.9382 22.3443 49.0274 22.1866 49.1856C22.029 49.3437 21.9404 49.5579 21.9404 49.7812C21.9404 50.0045 22.029 50.2187 22.1866 50.3769C22.3443 50.535 22.5582 50.6242 22.7815 50.6249H49.78C50.0033 50.6242 50.2172 50.535 50.3749 50.3769C50.5325 50.2187 50.621 50.0045 50.621 49.7812C50.621 49.5579 50.5325 49.3437 50.3749 49.1856C50.2172 49.0274 50.0033 48.9382 49.78 48.9375Z" fill="#206D69"/>
<path d="M26.9997 37.1232C27.2879 37.1214 27.5739 37.1729 27.8434 37.275V36.2794C27.8454 35.6087 28.1127 34.9661 28.5869 34.4918C29.0612 34.0176 29.7038 33.7503 30.3745 33.7483H34.5931C34.8812 33.7465 35.1673 33.798 35.4368 33.9002V32.0609C35.4387 31.3902 35.706 30.7476 36.1803 30.2733C36.6545 29.7991 37.2972 29.5318 37.9679 29.5298H42.1864C42.4746 29.528 42.7606 29.5795 43.0301 29.6817V26.9987C43.032 26.328 43.2993 25.6854 43.7736 25.2111C44.2478 24.7369 44.8905 24.4696 45.5612 24.4676H50.4884C50.031 20.2184 48.4295 16.1729 45.8545 12.762C43.2795 9.35112 39.8274 6.70265 35.8661 5.09874C31.9047 3.49483 27.5824 2.99556 23.3597 3.65412C19.1371 4.31267 15.1721 6.10438 11.8873 8.83838C8.60243 11.5724 6.12078 15.1462 4.70668 19.1793C3.29257 23.2123 2.99899 27.5533 3.8572 31.74C4.71542 35.9267 6.69328 39.8022 9.58009 42.9535C12.4669 46.1049 16.1545 48.4142 20.2501 49.6353V39.6543C20.2521 38.9836 20.5194 38.3409 20.9936 37.8667C21.4679 37.3924 22.1105 37.1251 22.7812 37.1232H26.9997ZM14.3442 27.8424C14.2331 27.8428 14.1231 27.8212 14.0205 27.779C13.9178 27.7367 13.8245 27.6746 13.7458 27.5962C13.6672 27.5179 13.6048 27.4247 13.5623 27.3222C13.5197 27.2197 13.4978 27.1097 13.4978 26.9987C13.4978 26.8877 13.5197 26.7778 13.5623 26.6752C13.6048 26.5727 13.6672 26.4796 13.7458 26.4012C13.8245 26.3228 13.9178 26.2607 14.0205 26.2185C14.1231 26.1762 14.2331 26.1547 14.3442 26.155H23.7346C23.8836 25.5711 24.187 25.0382 24.6131 24.6121C25.0392 24.186 25.5721 23.8825 26.156 23.7336V10.1246C26.1582 9.90232 26.2481 9.68987 26.4061 9.53346C26.5641 9.37705 26.7774 9.28931 26.9997 9.28931C27.222 9.28931 27.4354 9.37705 27.5934 9.53346C27.7513 9.68987 27.8412 9.90232 27.8434 10.1246V23.7336C28.4194 23.8821 28.9459 24.1803 29.3695 24.5979C29.7931 25.0156 30.0988 25.5378 30.2554 26.1116C30.4121 26.6855 30.4143 27.2906 30.2616 27.8655C30.109 28.4405 29.8071 28.9649 29.3865 29.3855C28.9659 29.8061 28.4415 30.108 27.8665 30.2606C27.2916 30.4132 26.6865 30.4111 26.1127 30.2544C25.5388 30.0977 25.0166 29.7921 24.599 29.3685C24.1813 28.9449 23.8831 28.4184 23.7346 27.8424H14.3442Z" fill="#206D69"/>
<path d="M27 28.6882C27.932 28.6882 28.6875 27.9327 28.6875 27.0007C28.6875 26.0688 27.932 25.3132 27 25.3132C26.068 25.3132 25.3125 26.0688 25.3125 27.0007C25.3125 27.9327 26.068 28.6882 27 28.6882Z" fill="#206D69"/>
</svg>
