<svg width="57" height="57" viewBox="0 0 57 57" fill="none" xmlns="http://www.w3.org/2000/svg">
<path d="M32.0625 17.8125C32.0625 9.95539 25.6696 3.5625 17.8125 3.5625C9.95539 3.5625 3.5625 9.95539 3.5625 17.8125C3.5625 25.6696 9.95539 32.0625 17.8125 32.0625C25.6696 32.0625 32.0625 25.6696 32.0625 17.8125ZM8.90625 24.9375V10.6875C8.90625 9.70381 9.70381 8.90625 10.6875 8.90625H17.8125C18.2848 8.90625 18.7378 9.09412 19.0718 9.4281L20.8531 11.2094C21.1871 11.5433 21.375 11.9965 21.375 12.4688V16.9219H27.2406L25.1984 14.8797C24.8505 14.5318 24.8505 13.9682 25.1984 13.6203C25.5463 13.2724 26.1099 13.2724 26.4578 13.6203L30.0203 17.1828C30.3682 17.5307 30.3682 18.0943 30.0203 18.4422L26.4578 22.0047C26.2839 22.1786 26.056 22.2656 25.8281 22.2656C25.6003 22.2656 25.3724 22.1786 25.1984 22.0047C24.8505 21.6568 24.8505 21.0932 25.1984 20.7453L27.2406 18.7031H21.375V24.9375C21.375 25.9212 20.5774 26.7188 19.5938 26.7188H10.6875C9.70381 26.7188 8.90625 25.9212 8.90625 24.9375Z" fill="#206D69"/>
<path d="M17.8125 48.0938C17.8125 51.0405 20.2095 53.4375 23.1562 53.4375H48.0938C51.0405 53.4375 53.4375 51.0405 53.4375 48.0938V42.75H17.8125V48.0938ZM46.3125 47.2031C46.3125 46.7108 46.7108 46.3125 47.2031 46.3125C47.6954 46.3125 48.0938 46.7108 48.0938 47.2031V48.9844C48.0938 49.4767 47.6954 49.875 47.2031 49.875C46.7108 49.875 46.3125 49.4767 46.3125 48.9844V47.2031ZM42.75 47.2031C42.75 46.7108 43.1483 46.3125 43.6406 46.3125C44.1329 46.3125 44.5312 46.7108 44.5312 47.2031V48.9844C44.5312 49.4767 44.1329 49.875 43.6406 49.875C43.1483 49.875 42.75 49.4767 42.75 48.9844V47.2031ZM39.1875 47.2031C39.1875 46.7108 39.5858 46.3125 40.0781 46.3125C40.5704 46.3125 40.9688 46.7108 40.9688 47.2031V48.9844C40.9688 49.4767 40.5704 49.875 40.0781 49.875C39.5858 49.875 39.1875 49.4767 39.1875 48.9844V47.2031ZM35.625 47.2031C35.625 46.7108 36.0233 46.3125 36.5156 46.3125C37.0079 46.3125 37.4062 46.7108 37.4062 47.2031V48.9844C37.4062 49.4767 37.0079 49.875 36.5156 49.875C36.0233 49.875 35.625 49.4767 35.625 48.9844V47.2031Z" fill="#206D69"/>
<path d="M17.8125 33.8438V40.9688H53.4375V30.2812H27.8662C25.1137 32.505 21.6181 33.8438 17.8125 33.8438ZM46.3125 34.7344C46.3125 34.2421 46.7108 33.8438 47.2031 33.8438C47.6954 33.8438 48.0938 34.2421 48.0938 34.7344V36.5156C48.0938 37.0079 47.6954 37.4062 47.2031 37.4062C46.7108 37.4062 46.3125 37.0079 46.3125 36.5156V34.7344ZM42.75 34.7344C42.75 34.2421 43.1483 33.8438 43.6406 33.8438C44.1329 33.8438 44.5312 34.2421 44.5312 34.7344V36.5156C44.5312 37.0079 44.1329 37.4062 43.6406 37.4062C43.1483 37.4062 42.75 37.0079 42.75 36.5156V34.7344ZM39.1875 34.7344C39.1875 34.2421 39.5858 33.8438 40.0781 33.8438C40.5704 33.8438 40.9688 34.2421 40.9688 34.7344V36.5156C40.9688 37.0079 40.5704 37.4062 40.0781 37.4062C39.5858 37.4062 39.1875 37.0079 39.1875 36.5156V34.7344ZM35.625 34.7344C35.625 34.2421 36.0233 33.8438 36.5156 33.8438C37.0079 33.8438 37.4062 34.2421 37.4062 34.7344V36.5156C37.4062 37.0079 37.0079 37.4062 36.5156 37.4062C36.0233 37.4062 35.625 37.0079 35.625 36.5156V34.7344Z" fill="#206D69"/>
<path d="M29.7275 28.5H53.4378V17.8125H33.8441C33.8441 21.9203 32.2775 25.6603 29.7275 28.5ZM46.3128 22.2656C46.3128 21.7733 46.7112 21.375 47.2034 21.375C47.6957 21.375 48.0941 21.7733 48.0941 22.2656V24.0469C48.0941 24.5392 47.6957 24.9375 47.2034 24.9375C46.7112 24.9375 46.3128 24.5392 46.3128 24.0469V22.2656ZM42.7503 22.2656C42.7503 21.7733 43.1487 21.375 43.6409 21.375C44.1332 21.375 44.5316 21.7733 44.5316 22.2656V24.0469C44.5316 24.5392 44.1332 24.9375 43.6409 24.9375C43.1487 24.9375 42.7503 24.5392 42.7503 24.0469V22.2656ZM39.1878 22.2656C39.1878 21.7733 39.5862 21.375 40.0784 21.375C40.5707 21.375 40.9691 21.7733 40.9691 22.2656V24.0469C40.9691 24.5392 40.5707 24.9375 40.0784 24.9375C39.5862 24.9375 39.1878 24.5392 39.1878 24.0469V22.2656ZM35.6253 22.2656C35.6253 21.7733 36.0237 21.375 36.5159 21.375C37.0082 21.375 37.4066 21.7733 37.4066 22.2656V24.0469C37.4066 24.5392 37.0082 24.9375 36.5159 24.9375C36.0237 24.9375 35.6253 24.5392 35.6253 24.0469V22.2656Z" fill="#206D69"/>
<path d="M48.0938 5.34375H27.8662C31.071 7.93289 33.26 11.7259 33.7387 16.0312H53.4375V10.6875C53.4375 7.74078 51.0405 5.34375 48.0938 5.34375ZM37.4063 11.5781C37.4063 12.0704 37.0079 12.4688 36.5157 12.4688C36.0234 12.4688 35.625 12.0704 35.625 11.5781V9.79688C35.625 9.3046 36.0234 8.90625 36.5157 8.90625C37.0079 8.90625 37.4063 9.3046 37.4063 9.79688V11.5781ZM40.9688 11.5781C40.9688 12.0704 40.5704 12.4688 40.0782 12.4688C39.5859 12.4688 39.1875 12.0704 39.1875 11.5781V9.79688C39.1875 9.3046 39.5859 8.90625 40.0782 8.90625C40.5704 8.90625 40.9688 9.3046 40.9688 9.79688V11.5781ZM44.5313 11.5781C44.5313 12.0704 44.1329 12.4688 43.6407 12.4688C43.1484 12.4688 42.75 12.0704 42.75 11.5781V9.79688C42.75 9.3046 43.1484 8.90625 43.6407 8.90625C44.1329 8.90625 44.5313 9.3046 44.5313 9.79688V11.5781ZM48.0938 11.5781C48.0938 12.0704 47.6954 12.4688 47.2032 12.4688C46.7109 12.4688 46.3125 12.0704 46.3125 11.5781V9.79688C46.3125 9.3046 46.7109 8.90625 47.2032 8.90625C47.6954 8.90625 48.0938 9.3046 48.0938 9.79688V11.5781Z" fill="#206D69"/>
<path d="M11.5781 15.1406H18.7031C19.1954 15.1406 19.5938 14.7423 19.5938 14.25C19.5938 13.7577 19.1954 13.3594 18.7031 13.3594H11.5781C11.0858 13.3594 10.6875 13.7577 10.6875 14.25C10.6875 14.7423 11.0858 15.1406 11.5781 15.1406Z" fill="#206D69"/>
<path d="M11.5781 18.7031H18.7031C19.1954 18.7031 19.5938 18.3048 19.5938 17.8125C19.5938 17.3202 19.1954 16.9219 18.7031 16.9219H11.5781C11.0858 16.9219 10.6875 17.3202 10.6875 17.8125C10.6875 18.3048 11.0858 18.7031 11.5781 18.7031Z" fill="#206D69"/>
<path d="M18.7031 20.4844H11.5781C11.0858 20.4844 10.6875 20.8827 10.6875 21.375C10.6875 21.8673 11.0858 22.2656 11.5781 22.2656H18.7031C19.1954 22.2656 19.5938 21.8673 19.5938 21.375C19.5938 20.8827 19.1954 20.4844 18.7031 20.4844Z" fill="#206D69"/>
</svg>
