<svg width="58" height="58" viewBox="0 0 58 58" fill="none" xmlns="http://www.w3.org/2000/svg">
<g clip-path="url(#clip0_83_59)">
<path d="M25.046 57.9854C11.9432 56.3473 1.65003 46.0542 0.0136673 32.9546C-0.114586 31.9425 0.676122 31.0444 1.69989 31.0444H8.56916C9.39896 31.0444 10.1059 31.6436 10.2454 32.4601C11.5665 40.2837 17.7121 46.431 25.5407 47.7537C26.3572 47.893 26.9563 48.6001 26.9563 49.4299V56.2992C26.9562 57.3099 26.08 58.1084 25.046 57.9854Z" fill="#206D69"/>
<path d="M8.57012 27.1921H1.70085C0.67652 27.1921 -0.113509 26.2934 0.014631 25.2819C1.81369 10.8694 14.1283 0.000488281 28.6568 0.000488281C35.1112 0.000488281 41.2303 2.10489 46.3535 6.08642C47.1684 6.72214 47.2294 7.91415 46.5128 8.63065L41.6567 13.4884C41.0692 14.0776 40.1465 14.1507 39.4693 13.6709C36.2811 11.3989 32.5419 10.1973 28.6567 10.1973C19.5137 10.1973 11.7698 16.7496 10.2463 25.7764C10.1069 26.5928 9.39992 27.1921 8.57012 27.1921Z" fill="#206D69"/>
<path d="M30.8086 56.3006V49.4313C30.8086 48.6015 31.4077 47.8945 32.2243 47.7551C41.2511 46.2315 47.8033 38.4876 47.8033 29.3446C47.8033 25.4594 46.6018 21.7202 44.3297 18.532C43.8484 17.8565 43.9248 16.9304 44.5122 16.3446L49.37 11.4885C50.0773 10.7812 51.2731 10.826 51.9143 11.6478C55.8958 16.7711 58.0002 22.8903 58.0002 29.3445C58.0002 43.873 47.1311 56.1876 32.7188 57.9867C31.6736 58.1113 30.8086 57.2995 30.8086 56.3006Z" fill="#206D69"/>
<path d="M22.1973 22.207C22.1973 21.2685 21.4364 20.5076 20.4978 20.5076H17.0989C16.1603 20.5076 15.3994 21.2685 15.3994 22.207V35.8028C15.3994 36.7414 16.1603 37.5023 17.0989 37.5023H20.4978C21.4364 37.5023 22.1973 36.7414 22.1973 35.8028V22.207Z" fill="#206D69"/>
<path d="M32.3946 35.8029V18.8081C32.3946 17.8696 31.6337 17.1086 30.6951 17.1086H27.2962C26.3576 17.1086 25.5967 17.8696 25.5967 18.8081V35.8029C25.5967 36.7414 26.3576 37.5023 27.2962 37.5023H30.6951C31.6338 37.5023 32.3946 36.7414 32.3946 35.8029Z" fill="#206D69"/>
<path d="M42.5918 35.8028V29.0049C42.5918 28.0663 41.8309 27.3054 40.8924 27.3054H37.4934C36.5549 27.3054 35.7939 28.0663 35.7939 29.0049V35.8028C35.7939 36.7414 36.5549 37.5023 37.4934 37.5023H40.8924C41.831 37.5023 42.5918 36.7414 42.5918 35.8028Z" fill="#206D69"/>
</g>
<defs>
<clipPath id="clip0_83_59">
<rect width="58" height="58" fill="white"/>
</clipPath>
</defs>
</svg>
