<svg width="49" height="49" viewBox="0 0 49 49" fill="none" xmlns="http://www.w3.org/2000/svg">
<g clip-path="url(#clip0_83_31)">
<path d="M24.5 14.4512C34.8711 14.4512 46.0332 12.2051 46.0332 7.27344C46.0332 2.34174 34.8711 0 24.5 0C14.1289 0 2.9668 2.34174 2.9668 7.27344C2.9668 12.2051 14.1289 14.4512 24.5 14.4512Z" fill="#206D69"/>
<path d="M24.5 17.3222C18.5623 17.3222 7.56279 16.3663 3.02437 12.5849C2.99558 12.5849 2.99558 12.5562 2.9668 12.5562C2.9668 18.3443 14.2695 19.6666 20.1934 20.0498V22.9209C15.0254 22.605 7.15867 21.5713 2.9668 18.3559V18.7578C2.9668 24.4424 17.0639 25.9355 24.5 25.9355C31.9361 25.9355 46.0332 24.4424 46.0332 18.7578V12.5562C40.6308 16.4183 31.0994 17.3222 24.5 17.3222ZM25.9355 23.0644H23.0645V20.1933H25.9355V23.0644Z" fill="#206D69"/>
<path d="M24.5 28.8066C18.581 28.8066 7.5041 27.8305 3.02437 24.0981C2.99558 24.0981 2.99558 24.0693 2.9668 24.0693C2.9668 29.8197 14.3663 31.1573 20.1934 31.5342V34.4053C15.0254 34.0894 7.15867 33.0557 2.9668 29.8403C2.9668 36.3578 18.1907 37.4199 24.5 37.4199C31.9361 37.4199 46.0332 35.9268 46.0332 30.2422V24.0693C40.657 27.9083 30.9615 28.8066 24.5 28.8066ZM25.9355 34.5488H23.0645V31.6777H25.9355V34.5488Z" fill="#206D69"/>
<path d="M3.02437 35.5825C2.99558 35.5825 2.99558 35.5537 2.9668 35.5537C2.9668 41.3041 14.3663 42.6417 20.1934 43.0186V45.8896C15.0254 45.5738 7.15867 44.5401 2.9668 41.3247C2.9668 47.8504 18.0344 49 24.5 49C34.8647 49 46.0332 46.6646 46.0332 41.7266V35.5537C40.291 40.0039 27.6294 40.291 24.5 40.291C21.3706 40.291 8.79534 40.0039 3.02437 35.5825ZM25.9355 46.0332H23.0645V43.1621H25.9355V46.0332Z" fill="#206D69"/>
</g>
<defs>
<clipPath id="clip0_83_31">
<rect width="49" height="49" fill="white"/>
</clipPath>
</defs>
</svg>
