<svg width="93" height="93" viewBox="0 0 93 93" fill="none" xmlns="http://www.w3.org/2000/svg">
<path d="M0 5C0 2.23858 2.23858 0 5 0H88C90.7614 0 93 2.23858 93 5V88C93 90.7614 90.7614 93 88 93H5C2.23858 93 0 90.7614 0 88V5Z" fill="url(#paint0_radial_5018_295)"/>
<g clip-path="url(#clip0_5018_295)">
<path d="M64.2495 28.013C64.2135 27.7505 63.9836 27.6052 63.794 27.5894C63.6043 27.5735 59.9028 27.5173 59.9028 27.5173C59.9028 27.5173 56.8071 24.5107 56.5013 24.2047C56.1955 23.8987 55.5981 23.9915 55.3662 24.0598C55.3628 24.0608 54.7853 24.2396 53.8106 24.5414C53.648 24.0131 53.4081 23.3642 53.0662 22.7121C51.9639 20.6094 50.3501 19.4964 48.3996 19.4935C48.3974 19.4935 48.3954 19.4935 48.393 19.4935C48.2578 19.4935 48.1231 19.5062 47.9882 19.5185C47.9309 19.4495 47.8729 19.381 47.8119 19.3157C46.9627 18.4068 45.8722 17.964 44.5671 18.0023C42.0475 18.0745 39.5396 19.8938 37.5054 23.1247C36.0735 25.3987 34.9857 28.2553 34.6763 30.4662C31.784 31.3619 29.7604 31.9887 29.7166 32.0024C28.2566 32.4605 28.2107 32.5064 28.0193 33.8819C27.8744 34.9232 24.0547 64.4635 24.0547 64.4635L56.0706 69.9999L69.9465 66.5509C69.9465 66.5509 64.2853 28.2755 64.2495 28.013ZM36.4699 29.9107C37.3356 25.8628 40.7274 19.7901 44.6155 19.6783C45.207 19.6659 45.7052 19.7957 46.1306 20.0757C45.4502 20.429 44.7919 20.9368 44.1745 21.599C42.5743 23.3156 41.3485 25.981 40.8597 28.5513C39.3343 29.0236 37.8424 29.4857 36.4699 29.9107ZM48.0474 26.3257C46.3702 26.845 44.5391 27.4121 42.7023 27.9808C43.2194 26.0026 44.1983 24.033 45.4012 22.7426C45.8487 22.2626 46.4747 21.727 47.2159 21.4212C47.9132 22.8742 48.0643 24.9341 48.0474 26.3257ZM49.7222 25.8072C49.7036 24.5314 49.5512 22.757 48.957 21.2231C50.8685 21.5853 51.8097 23.7482 52.2069 25.0378C51.4703 25.2658 50.6312 25.5256 49.7222 25.8072Z" fill="#95BF47"/>
<path d="M63.7928 27.5902C63.6032 27.5744 59.9017 27.5181 59.9017 27.5181C59.9017 27.5181 56.8059 24.5116 56.5001 24.2056C56.3861 24.0914 56.2314 24.033 56.0703 24.0078L56.0711 70.0004L69.9454 66.5517C69.9454 66.5517 64.2843 28.2764 64.2483 28.0138C64.2124 27.7513 63.9824 27.6061 63.7928 27.5902Z" fill="#5E8E3E"/>
<path d="M48.3835 34.721L46.7718 40.7499C46.7718 40.7499 44.9741 39.9313 42.8428 40.0659C39.7179 40.2632 39.6846 42.2344 39.7158 42.7284C39.886 45.4248 46.9794 46.014 47.3781 52.3293C47.6918 57.298 44.7427 60.6967 40.4932 60.965C35.3938 61.2869 32.5859 58.2779 32.5859 58.2779L33.6665 53.6807C33.6665 53.6807 36.4922 55.8127 38.7542 55.6699C40.2318 55.5766 40.7597 54.3749 40.7061 53.525C40.4839 50.0077 34.7079 50.2149 34.343 44.4357C34.0358 39.5717 37.2298 34.6442 44.2774 34.1991C46.9929 34.0278 48.3835 34.721 48.3835 34.721Z" fill="white"/>
</g>
<defs>
<radialGradient id="paint0_radial_5018_295" cx="0" cy="0" r="1" gradientUnits="userSpaceOnUse" gradientTransform="translate(46.5 46.5) rotate(90) scale(46.5)">
<stop stop-color="#194547"/>
<stop offset="1" stop-color="#0C2123"/>
</radialGradient>
<clipPath id="clip0_5018_295">
<rect width="52" height="52" fill="white" transform="translate(21 18)"/>
</clipPath>
</defs>
</svg>
