<svg width="61" height="19" viewBox="0 0 61 19" fill="none" xmlns="http://www.w3.org/2000/svg">
<g clip-path="url(#clip0_17_112)">
<path d="M58.5326 2.56087L57.0175 4.47888L55.098 6.91087L54.7142 7.39988C54.6597 7.46915 54.5995 7.53309 54.5342 7.59088C54.513 7.61037 54.491 7.62873 54.4682 7.64587C54.389 7.69854 54.3088 7.74954 54.2277 7.79887C53.3776 8.32635 52.4106 8.60495 51.4256 8.60618C50.4408 8.60741 49.4731 8.33122 48.6218 7.80587H48.6171C48.5275 7.74987 48.4379 7.69288 48.3503 7.63287C48.3061 7.59789 48.2642 7.5598 48.2249 7.51888C48.1884 7.4815 48.1538 7.44212 48.1211 7.40088L47.9137 7.13787L45.8207 4.47888L44.3046 2.55787C44.1466 2.35672 44.0398 2.11597 43.9944 1.85858C43.949 1.60119 43.9666 1.33576 44.0455 1.08763C44.1244 0.839506 44.2618 0.616955 44.4448 0.441231C44.6279 0.265507 44.8503 0.142474 45.0909 0.083876C45.1965 0.0591259 45.3043 0.0467191 45.4124 0.0468765H45.4341C45.6454 0.0476647 45.8539 0.0975935 46.045 0.193141C46.2361 0.288689 46.405 0.427529 46.5401 0.599876L50.3113 5.39988C50.4468 5.5719 50.6162 5.71026 50.8076 5.80521C50.9991 5.90016 51.2078 5.94937 51.4191 5.94937C51.6304 5.94937 51.8391 5.90016 52.0306 5.80521C52.222 5.71026 52.3914 5.5719 52.5269 5.39988L56.3189 0.599876C56.4545 0.428236 56.6238 0.290147 56.815 0.195305C57.0062 0.100462 57.2147 0.0511666 57.4258 0.0508774C57.5339 0.0507199 57.6417 0.0631268 57.7473 0.0878769C57.9875 0.146938 58.2094 0.270203 58.3921 0.445946C58.5747 0.621688 58.7119 0.844063 58.7906 1.09192C58.8693 1.33977 58.8869 1.60487 58.8418 1.86199C58.7966 2.11911 58.6902 2.35969 58.5326 2.56087Z" fill="#206D69"/>
<path d="M57.7482 0.0840606C57.6426 0.0593105 57.5349 0.0469037 57.4267 0.0470611C57.2151 0.0476937 57.0063 0.0975425 56.8149 0.193091C56.6235 0.288639 56.4542 0.42756 56.3189 0.600061L52.5269 5.40006C52.3914 5.57208 52.222 5.71045 52.0306 5.8054C51.8391 5.90035 51.6304 5.94956 51.4191 5.94956C51.2078 5.94956 50.9991 5.90035 50.8076 5.8054C50.6162 5.71045 50.4468 5.57208 50.3113 5.40006L46.5401 0.600061C46.4046 0.427692 46.2351 0.288996 46.0435 0.193784C45.8519 0.0985708 45.6429 0.0491651 45.4313 0.04906H45.4096C45.3015 0.0489026 45.1937 0.0613094 45.0881 0.0860595C45.0881 0.0860595 45.0881 0.079062 45.0881 0.076062C45.0881 0.073062 45.0881 0.05806 45.0881 0.04906C45.0877 0.0457449 45.0877 0.0423776 45.0881 0.0390625H46.1035L46.5363 0.59006L50.3075 5.39006C50.443 5.56208 50.6124 5.70045 50.8038 5.7954C50.9953 5.89035 51.2041 5.93956 51.4153 5.93956C51.6266 5.93956 51.8354 5.89035 52.0268 5.7954C52.2182 5.70045 52.3877 5.56208 52.5231 5.39006L56.3151 0.59006L56.7479 0.0420623H57.7407C57.7411 0.0453775 57.7411 0.0487448 57.7407 0.0520599C57.7407 0.0610599 57.7407 0.0700619 57.7407 0.0790619C57.7407 0.0880619 57.7482 0.0810606 57.7482 0.0840606Z" fill="#206D69"/>
<path d="M38.8788 1.59992L38.7845 1.49992L38.7326 1.44792L38.7213 1.43592L38.627 1.34492C38.5752 1.29692 38.5214 1.24992 38.4677 1.20392C38.4328 1.17392 38.3989 1.14492 38.364 1.11692C38.3291 1.08892 38.2744 1.04492 38.2282 1.01092C38.1339 0.941919 38.0444 0.876921 37.9454 0.815921C37.8464 0.754921 37.7568 0.695922 37.6569 0.641922C37.5569 0.587922 37.4589 0.541921 37.3571 0.490921C37.3109 0.469921 37.2628 0.447921 37.2156 0.428921L37.1902 0.417919L37.0469 0.36192L36.9064 0.31192L36.8706 0.29992L36.8159 0.281921L36.7772 0.270919L36.6782 0.241922L36.5651 0.210919C36.1249 0.100339 35.6739 0.0456243 35.2216 0.047921H29.4157C29.2717 0.047921 29.1336 0.108605 29.0317 0.216626C28.9299 0.324646 28.8727 0.471155 28.8727 0.623919V18.3399C28.8727 18.4927 28.9299 18.6392 29.0317 18.7472C29.1336 18.8552 29.2717 18.9159 29.4157 18.9159H31.2259C31.2976 18.9164 31.3686 18.9019 31.435 18.8732C31.5012 18.8445 31.5616 18.8021 31.6124 18.7486C31.6632 18.6951 31.7036 18.6314 31.7311 18.5613C31.7586 18.4911 31.7728 18.4159 31.7728 18.3399V10.8999H31.785V7.82992H31.7728V3.69992C31.7728 3.54689 31.8301 3.40013 31.9321 3.29192C32.0341 3.18371 32.1725 3.12292 32.3168 3.12292H35.2244C35.9007 3.12292 36.4397 3.33659 36.8413 3.76392C37.243 4.19125 37.4445 4.76259 37.4457 5.47792C37.4457 6.19592 37.2442 6.76792 36.8413 7.19392L36.8027 7.23292C36.793 7.244 36.7826 7.25436 36.7716 7.26392C36.748 7.28592 36.7244 7.30892 36.699 7.33092L36.6924 7.33592C36.668 7.35832 36.6425 7.37935 36.616 7.39892C36.5981 7.41292 36.5811 7.42692 36.5632 7.43892L36.5142 7.47392C36.4802 7.49692 36.4454 7.51892 36.4105 7.53992L36.3416 7.57892L36.3134 7.59392C36.2916 7.60578 36.2692 7.61647 36.2464 7.62592C36.1088 7.69066 35.9649 7.7396 35.8174 7.77192C35.6224 7.81476 35.4236 7.83554 35.2244 7.83392C35.0803 7.83418 34.9421 7.89509 34.8403 8.00327C34.7386 8.11145 34.6814 8.25806 34.6814 8.41092V10.3299C34.6814 10.4828 34.7386 10.6294 34.8403 10.7375C34.9421 10.8457 35.0803 10.9066 35.2244 10.9069C35.3102 10.9069 35.3941 10.9069 35.4771 10.9009L35.61 10.8939C35.6741 10.8939 35.7382 10.8839 35.7986 10.8779L35.8731 10.8699C35.9419 10.8619 36.0117 10.8529 36.0795 10.8419L36.2229 10.8189L36.3303 10.7979L36.4378 10.7749C36.5161 10.7569 36.5934 10.7369 36.6707 10.7159L36.6933 10.7089L36.7876 10.6799C36.8442 10.6629 36.8998 10.6449 36.9554 10.6249C37.011 10.6049 37.0657 10.5849 37.1204 10.5639C37.1751 10.5429 37.2147 10.5269 37.2571 10.5069L37.3043 10.4859C37.3505 10.4659 37.3985 10.4449 37.4419 10.4229C37.6689 10.3134 37.8872 10.1843 38.0943 10.0369L38.1594 9.99092C38.4158 9.80342 38.6554 9.59119 38.875 9.35692C39.8492 8.32492 40.3361 7.03192 40.3354 5.47792C40.3347 3.92392 39.8492 2.63125 38.8788 1.59992Z" fill="#206D69"/>
<path d="M54.2278 7.79991C54.3125 7.75764 54.3931 7.70638 54.4682 7.64691C54.389 7.69758 54.3089 7.74858 54.2278 7.79991ZM48.3503 7.63291C48.433 7.70072 48.5224 7.75873 48.6171 7.80591C48.5275 7.74591 48.438 7.68891 48.3503 7.62891V7.63291Z" fill="#206D69"/>
<path d="M57.8887 18.9161C57.8355 18.9161 57.7823 18.9131 57.7294 18.9071C57.362 18.8638 57.0245 18.6722 56.7866 18.3721L52.5147 12.9811C52.3786 12.813 52.2097 12.6782 52.0196 12.5861C51.8297 12.494 51.6231 12.4466 51.4142 12.4474C51.2052 12.4482 50.9989 12.497 50.8095 12.5905C50.6201 12.684 50.452 12.82 50.317 12.9891L46.08 18.3681C45.8403 18.6718 45.499 18.865 45.1278 18.9071C45.0768 18.9131 45.0255 18.9161 44.9741 18.9161H44.9722C44.6966 18.9178 44.4263 18.8358 44.1933 18.6798C43.9603 18.5238 43.7742 18.3003 43.6571 18.0357C43.54 17.7711 43.4968 17.4764 43.5325 17.1866C43.5683 16.8968 43.6814 16.6239 43.8587 16.4001L46.1413 13.5001L47.481 11.8001L47.662 11.5691C47.7006 11.5202 47.7422 11.4741 47.7865 11.4311C47.8447 11.3724 47.9077 11.3195 47.9751 11.2731C48.9246 10.4895 50.0865 10.0504 51.2893 10.0207C52.4921 9.99096 53.672 10.3722 54.6549 11.1081C54.6379 11.1161 54.6219 11.1241 54.6068 11.1331C54.8261 11.2277 55.0203 11.3777 55.1725 11.5701L55.2074 11.6141L56.7159 13.5311L58.9786 16.4041C59.1535 16.6263 59.2654 16.8966 59.3013 17.1835C59.3374 17.4704 59.2959 17.7623 59.1818 18.0253C59.0677 18.2882 58.8857 18.5115 58.6568 18.6691C58.4279 18.8268 58.1616 18.9124 57.8887 18.9161Z" fill="#206D69"/>
<path d="M24.2633 0.046875L19.8462 13.6929L15.2368 0.046875H12.1462L7.53587 13.6929L3.1188 0.046875H0.0537109L6.16031 18.9159H8.83978L13.6915 4.57887L18.5423 18.9159H21.2217L27.3283 0.046875H24.2633Z" fill="#206D69"/>
<path d="M38.8788 1.59987C38.2448 0.917059 37.4429 0.436824 36.5642 0.213867C36.5706 0.258897 36.574 0.304335 36.5745 0.349866C36.5745 0.814866 36.1691 1.33187 35.6968 1.27987C34.8718 1.18787 34.0412 1.17987 33.2162 1.09187C32.8646 1.05287 32.5515 0.859867 32.4139 0.538867C32.2984 0.643644 32.1622 0.719454 32.0153 0.76066C31.8684 0.801866 31.7146 0.807404 31.5654 0.776865C31.158 0.715438 30.7428 0.747494 30.3482 0.870865C30.2113 0.914737 30.0657 0.91888 29.9267 0.882865C29.824 1.42687 29.9267 2.01687 29.9795 2.57487C30.0738 3.53587 30.1031 4.50887 30.1304 5.47487C30.1879 7.49287 30.1662 9.51287 30.1059 11.5319C30.0833 12.2839 29.3818 12.5629 28.8727 12.3699V18.9199H31.7728V10.8999H31.785V7.82987H31.7728V3.11887H35.2244C35.9007 3.11887 36.4397 3.33254 36.8413 3.75987C37.243 4.1872 37.4445 4.75854 37.4457 5.47387C37.4457 6.19187 37.2442 6.76387 36.8413 7.18987C36.5614 7.48564 36.2051 7.68678 35.8174 7.76787C35.878 7.89848 35.9049 8.0437 35.8956 8.18888C35.8864 8.33407 35.8412 8.4741 35.7646 8.59487C35.5054 9.04487 35.4629 9.56287 35.4582 10.1469C35.4582 10.3969 35.4648 10.6469 35.4771 10.8969C36.8291 10.8396 37.9639 10.3249 38.8816 9.35287C39.8558 8.32087 40.3427 7.02787 40.342 5.47387C40.3413 3.91987 39.8536 2.62854 38.8788 1.59987Z" fill="#206D69"/>
<path d="M45.4097 0.0468765C45.3015 0.0467191 45.1938 0.0591259 45.0882 0.083876C44.8476 0.142474 44.6252 0.265507 44.4421 0.441231C44.2591 0.616955 44.1216 0.839506 44.0427 1.08763C43.9639 1.33576 43.9462 1.60119 43.9916 1.85858C44.037 2.11597 44.1439 2.35672 44.3019 2.55787L42.322 0.0468765H45.4097Z" fill="#206D69"/>
<path d="M46.5401 0.599829C46.4046 0.42746 46.2351 0.288764 46.0435 0.193552C45.8519 0.0983389 45.6429 0.0489332 45.4313 0.0488281H46.1036L46.5401 0.599829Z" fill="#206D69"/>
<path d="M57.4258 0.046875C57.2144 0.0476537 57.0058 0.0975721 56.8145 0.193115C56.6233 0.288659 56.4541 0.427503 56.3189 0.599875L56.7517 0.0508759L57.4258 0.046875Z" fill="#206D69"/>
<path d="M58.5327 2.56087C58.6912 2.35978 58.7984 2.11893 58.8441 1.86135C58.8898 1.60377 58.8725 1.33807 58.7938 1.08961C58.7151 0.84115 58.5777 0.618237 58.3947 0.442162C58.2117 0.266087 57.9891 0.14273 57.7483 0.083876C57.6427 0.0591259 57.5349 0.0467191 57.4268 0.0468765H60.5192L58.5327 2.56087Z" fill="#206D69"/>
<path d="M44.9722 18.9158H41.8835L43.8635 16.4038C43.6875 16.6273 43.5754 16.8994 43.5402 17.1881C43.5049 17.4769 43.548 17.7703 43.6643 18.0339C43.7808 18.2976 43.9656 18.5206 44.1972 18.6768C44.4289 18.833 44.6977 18.9159 44.9722 18.9158Z" fill="#206D69"/>
<path d="M46.0809 18.3682L45.6491 18.9162H44.9722C45.0236 18.9162 45.0748 18.9132 45.1258 18.9072C45.4981 18.8659 45.8406 18.6726 46.0809 18.3682Z" fill="#206D69"/>
<path d="M57.8887 18.9161H57.2156L56.7856 18.3721C57.0235 18.6722 57.361 18.8638 57.7285 18.9071C57.7817 18.9132 57.8352 18.9162 57.8887 18.9161Z" fill="#206D69"/>
<path d="M60.9764 18.9159H57.8887C58.1635 18.9157 58.4325 18.8323 58.6642 18.6755C58.8957 18.5188 59.0804 18.2951 59.1964 18.0309C59.3123 17.7667 59.3547 17.4729 59.3187 17.1839C59.2826 16.895 59.1695 16.623 58.9928 16.3999L60.9764 18.9159Z" fill="#206D69"/>
<path d="M46.0809 18.3682L45.6491 18.9162H45.1287V18.9072C45.4999 18.8651 45.8412 18.6719 46.0809 18.3682Z" fill="#206D69"/>
<path d="M54.6596 11.1049C54.8401 11.249 55.0132 11.4032 55.1781 11.5669C55.2639 11.6759 54.4569 11.2489 54.4569 11.2489L54.3626 11.0239L54.6596 11.1049Z" fill="#206D69"/>
</g>
<defs>
<clipPath id="clip0_17_112">
<rect width="61" height="19" fill="white"/>
</clipPath>
</defs>
</svg>
