<svg width="133" height="133" viewBox="0 0 133 133" fill="none" xmlns="http://www.w3.org/2000/svg">
<g filter="url(#filter0_d_4951_104)">
<path d="M20 25C20 22.2386 22.2386 20 25 20H108C110.761 20 113 22.2386 113 25V108C113 110.761 110.761 113 108 113H25C22.2386 113 20 110.761 20 108V25Z" fill="url(#paint0_linear_4951_104)"/>
</g>
<path d="M43.4375 76.4737C43.0422 76.4737 42.6469 76.3225 42.3444 76.02C41.7394 75.4167 41.7394 74.437 42.3444 73.8337L47.2634 68.9147C47.8684 68.3097 48.8464 68.3097 49.4497 68.9147C50.0547 69.518 50.0547 70.4977 49.4497 71.1009L44.5306 76.02C44.2298 76.3225 43.8345 76.4737 43.4375 76.4737Z" fill="white"/>
<path d="M47.4219 89.1209C47.0266 89.1209 46.6313 88.9697 46.3287 88.6672C45.7237 88.0639 45.7237 87.0842 46.3287 86.4809L55.5825 77.2272C56.1875 76.6222 57.1655 76.6222 57.7688 77.2272C58.3738 77.8305 58.3738 78.8102 57.7688 79.4134L48.515 88.6689C48.2125 88.9714 47.8172 89.1209 47.4219 89.1209Z" fill="white"/>
<path d="M60.0703 93.1066C59.675 93.1066 59.2797 92.9553 58.9772 92.6528C58.3722 92.0495 58.3722 91.0698 58.9772 90.4666L63.8963 85.5475C64.5013 84.9425 65.4792 84.9425 66.0825 85.5475C66.6875 86.1508 66.6875 87.1305 66.0825 87.7337L61.1634 92.6528C60.8627 92.9553 60.4673 93.1066 60.0703 93.1066Z" fill="white"/>
<path d="M87.2164 43.5823L46.8189 55.6307C43.7681 56.5399 43.555 60.7784 46.4975 61.9901L63.8431 69.1384C63.9187 68.9545 64.0287 68.7826 64.1783 68.6348L73.0487 59.7643C73.6537 59.1593 74.6317 59.1593 75.235 59.7643C75.84 60.3676 75.84 61.3473 75.235 61.9506L66.3645 70.821C66.215 70.9706 66.0431 71.0823 65.8592 71.1579L73.0109 88.5121C74.2209 91.4495 78.4525 91.2363 79.36 88.1907L91.4119 47.7777C92.1784 45.2099 89.7859 42.8174 87.2164 43.5823Z" fill="white"/>
<defs>
<filter id="filter0_d_4951_104" x="0" y="0" width="133" height="133" filterUnits="userSpaceOnUse" color-interpolation-filters="sRGB">
<feFlood flood-opacity="0" result="BackgroundImageFix"/>
<feColorMatrix in="SourceAlpha" type="matrix" values="0 0 0 0 0 0 0 0 0 0 0 0 0 0 0 0 0 0 127 0" result="hardAlpha"/>
<feOffset/>
<feGaussianBlur stdDeviation="10"/>
<feComposite in2="hardAlpha" operator="out"/>
<feColorMatrix type="matrix" values="0 0 0 0 0.396078 0 0 0 0 0.811765 0 0 0 0 0.352941 0 0 0 0.5 0"/>
<feBlend mode="normal" in2="BackgroundImageFix" result="effect1_dropShadow_4951_104"/>
<feBlend mode="normal" in="SourceGraphic" in2="effect1_dropShadow_4951_104" result="shape"/>
</filter>
<linearGradient id="paint0_linear_4951_104" x1="66.5" y1="20" x2="66.5" y2="113" gradientUnits="userSpaceOnUse">
<stop stop-color="#5DCF57"/>
<stop offset="1" stop-color="#B4CC71"/>
</linearGradient>
</defs>
</svg>
